<?xml version="1.0" standalone="no"?>
<!DOCTYPE svg PUBLIC "-//W3C//DTD SVG 20010904//EN"
 "http://www.w3.org/TR/2001/REC-SVG-20010904/DTD/svg10.dtd">
<svg version="1.0" xmlns="http://www.w3.org/2000/svg"
 width="50.000000pt" height="50.000000pt" viewBox="0 0 50.000000 50.000000"
 preserveAspectRatio="xMidYMid meet">
<metadata>
Created by potrace 1.16, written by Peter Selinger 2001-2019
</metadata>
<g transform="translate(0.000000,50.000000) scale(0.007812,-0.007812)"
fill="#000000" stroke="none">
<path d="M1824 6393 c1449 -3 1832 -6 1838 -16 6 -9 8 -9 8 1 0 6 7 12 16 12
8 0 13 -4 9 -9 -3 -5 -1 -12 5 -16 5 -3 10 1 10 9 0 13 14 16 79 16 54 0 81
-4 84 -12 4 -10 8 -10 14 -2 5 7 50 12 119 13 91 2 113 -1 117 -13 5 -13 2
-13 -20 -5 -17 6 -30 6 -39 -2 -7 -6 -19 -7 -26 -3 -25 16 -58 15 -58 0 0 -10
6 -13 18 -9 15 6 16 5 2 -12 -12 -15 -12 -17 -1 -10 11 6 13 4 8 -8 -3 -10 -2
-17 4 -17 6 0 7 -4 4 -10 -3 -5 1 -10 10 -10 10 0 15 -6 12 -13 -3 -8 1 -14 9
-14 8 0 13 5 11 11 -2 6 6 18 17 28 17 13 19 19 9 29 -11 11 -13 9 -13 -10 0
-12 -4 -19 -10 -16 -6 3 -10 1 -10 -5 0 -6 -5 -8 -10 -5 -8 5 -8 11 0 20 8 9
8 15 0 20 -5 3 -10 0 -10 -7 0 -10 -2 -10 -9 1 -5 8 -7 20 -4 28 4 11 9 11 24
-3 11 -9 19 -12 19 -6 0 6 9 10 20 9 11 -1 20 -8 20 -15 0 -12 3 -12 15 -2 12
10 16 9 21 -4 5 -13 9 -14 20 -5 12 10 13 9 8 -5 -5 -12 -2 -15 12 -9 12 4 15
3 10 -5 -13 -21 28 -13 47 8 9 11 22 20 28 20 6 0 1 -9 -12 -20 -14 -11 -18
-19 -11 -20 7 0 11 -4 7 -9 -5 -9 -49 -6 -66 5 -4 2 -10 -2 -12 -8 -3 -8 -6
-6 -6 5 -1 9 -7 17 -15 17 -8 0 -23 3 -33 7 -14 5 -12 1 7 -20 14 -15 31 -27
38 -27 6 0 12 -5 12 -11 0 -5 -5 -7 -12 -3 -7 4 -8 3 -4 -5 9 -14 26 -5 26 15
0 17 12 18 28 2 8 -8 15 -8 25 1 20 16 46 -14 28 -32 -10 -9 -11 -8 -5 8 7 17
6 18 -8 5 -19 -18 -14 -30 13 -30 10 0 19 -3 19 -7 0 -5 12 -17 27 -27 16 -12
23 -14 18 -5 -5 8 -17 20 -27 27 -22 16 -24 34 -2 25 9 -3 20 0 25 8 7 11 9
11 9 -3 0 -9 -6 -19 -12 -22 -7 -3 -3 -3 10 0 12 3 22 1 22 -5 0 -6 -5 -11
-11 -11 -8 0 -8 -5 1 -15 7 -8 10 -21 7 -29 -5 -13 -2 -13 19 -4 31 14 45 1
20 -18 -11 -8 -15 -14 -9 -14 7 0 15 5 19 11 10 16 43 -30 37 -50 -3 -9 1 -8
8 3 9 15 9 21 1 24 -7 2 -12 8 -12 14 0 6 7 5 16 -3 13 -10 17 -10 24 1 5 9 4
20 -2 28 -8 10 -4 20 17 43 33 33 44 33 56 0 6 -14 5 -20 -1 -16 -6 3 -10 13
-10 21 0 12 -4 12 -20 4 -11 -6 -20 -18 -20 -26 0 -8 -4 -12 -10 -9 -6 3 -7
-1 -3 -10 4 -13 8 -14 14 -4 4 8 12 10 16 5 4 -4 1 -13 -8 -20 -14 -10 -15
-15 -4 -29 12 -17 13 -17 20 0 5 10 8 21 7 25 -1 4 7 10 18 13 20 6 23 13 22
50 -1 15 0 16 4 3 6 -20 31 -31 39 -18 4 6 1 10 -6 10 -8 0 -8 4 1 15 7 8 10
21 7 30 -4 8 -2 17 4 20 5 4 9 3 8 -2 -3 -19 2 -36 8 -29 5 4 9 12 9 17 1 5 2
14 3 19 0 6 9 10 19 10 9 0 13 -4 7 -8 -16 -11 -16 -29 0 -42 11 -9 12 -17 4
-31 -5 -11 -7 -24 -4 -29 3 -6 1 -10 -4 -10 -6 0 -11 12 -11 28 0 21 -2 24
-10 12 -8 -13 -10 -12 -10 3 0 9 -4 17 -9 17 -10 0 -12 -50 -3 -65 12 -20 8
-41 -10 -42 -10 -1 -20 3 -24 8 -4 6 -11 6 -20 -2 -8 -7 -14 -7 -14 -1 0 15
26 22 39 9 17 -17 24 -1 9 25 -7 12 -14 25 -15 27 -1 2 -13 -9 -27 -24 -20
-21 -23 -31 -15 -41 16 -19 3 -32 -26 -26 -14 2 -25 0 -25 -5 0 -16 51 -8 65
10 13 18 45 14 45 -5 0 -6 -7 -8 -15 -4 -8 3 -15 1 -15 -3 0 -5 7 -11 15 -15
8 -3 15 -1 15 4 0 5 7 7 15 4 8 -4 15 -13 15 -21 0 -9 -6 -13 -15 -9 -17 6
-21 -9 -5 -19 5 -3 18 8 29 25 14 23 20 27 24 16 3 -8 1 -16 -5 -18 -6 -2 -8
-10 -4 -16 10 -16 29 -15 21 1 -4 6 1 3 9 -7 9 -11 16 -31 15 -45 0 -14 -3
-20 -6 -13 -2 6 -10 9 -15 5 -7 -4 -9 2 -6 15 4 12 2 20 -3 16 -5 -3 -9 -1 -9
3 0 5 -16 9 -35 10 -20 0 -32 -4 -29 -9 3 -5 12 -7 20 -4 13 5 18 -5 15 -31
-2 -13 10 -17 40 -14 18 2 33 -48 19 -63 -5 -5 -7 -14 -6 -20 2 -6 1 -7 -2 -3
-2 4 -10 3 -18 -4 -11 -9 -14 -8 -14 6 0 15 -2 16 -17 4 -15 -12 -16 -12 -10
4 4 10 7 21 7 23 0 3 9 0 21 -6 11 -7 23 -9 26 -7 7 8 -7 47 -17 47 -5 0 -7
-7 -4 -15 7 -18 -7 -20 -25 -2 -8 6 -11 7 -8 1 4 -6 -7 -25 -23 -42 -17 -18
-30 -26 -33 -19 -2 7 -2 3 1 -8 2 -11 4 -32 4 -47 -1 -17 7 -33 19 -41 17 -13
18 -16 4 -27 -13 -10 -15 -9 -15 9 0 12 -6 24 -13 27 -7 2 -12 17 -11 34 1 21
-3 30 -13 30 -8 0 -12 -4 -8 -9 3 -6 -3 -9 -14 -8 -16 1 -17 4 -7 20 8 15 8
21 -1 24 -9 3 -8 11 3 29 9 13 14 33 11 44 -3 13 0 20 10 20 8 0 11 -5 7 -12
-4 -7 -3 -8 4 -4 7 4 12 2 12 -3 0 -6 7 -11 16 -11 12 0 14 3 6 13 -6 7 -7 18
-3 26 6 9 11 10 15 2 9 -15 23 -14 29 2 6 17 -42 15 -53 -3 -8 -13 -30 -6 -30
11 0 6 3 8 8 6 4 -3 13 1 20 9 15 16 4 18 -18 4 -22 -13 -32 11 -12 28 9 7 11
11 5 7 -7 -3 -13 -1 -13 4 0 17 -17 13 -25 -6 -3 -10 -1 -19 4 -21 6 -2 9 -8
5 -13 -3 -5 0 -9 5 -9 6 0 11 -5 11 -11 0 -6 -7 -8 -16 -5 -9 4 -13 2 -8 -5 4
-8 -1 -9 -15 -4 -12 4 -21 2 -21 -4 0 -6 5 -11 10 -11 17 0 10 -24 -15 -55
-29 -35 -34 -25 -6 14 16 22 17 29 6 44 -17 23 -28 22 -13 -2 9 -15 8 -22 -8
-39 -19 -21 -20 -21 -21 -2 -1 11 3 22 8 25 5 4 6 11 2 18 -4 6 -11 -4 -18
-24 -10 -28 -9 -38 4 -59 10 -14 11 -21 4 -17 -9 5 -13 2 -13 -8 0 -9 5 -13
10 -10 6 3 10 1 10 -4 0 -6 8 -11 18 -12 10 0 12 -3 5 -6 -7 -2 -13 -9 -13
-14 0 -6 5 -7 10 -4 6 4 6 -4 -1 -19 -8 -16 -17 -22 -27 -19 -10 4 -13 2 -8
-6 4 -6 15 -11 24 -10 10 1 25 1 34 0 24 -1 11 -31 -14 -31 -11 0 -16 4 -12
11 4 8 0 7 -15 -1 -12 -6 -19 -15 -16 -20 3 -5 1 -11 -5 -15 -5 -3 -10 0 -10
7 0 9 -3 9 -10 -2 -8 -12 -10 -8 -11 15 -1 17 -2 36 -2 42 1 7 -4 10 -9 7 -6
-4 -8 1 -4 14 6 17 3 20 -17 18 -29 -3 -47 -14 -47 -27 0 -5 11 -2 25 7 24 16
25 16 26 -7 1 -13 1 -31 0 -39 -2 -12 0 -12 7 -1 7 9 9 6 9 -13 1 -14 -2 -26
-6 -27 -3 0 -14 -2 -24 -4 -11 -2 -16 1 -14 8 2 7 12 11 21 11 13 -2 14 1 5
12 -6 7 -8 18 -4 24 3 5 1 10 -5 10 -6 0 -8 6 -4 13 4 7 3 9 -2 4 -9 -9 -10
-13 -13 -43 0 -8 -5 -13 -10 -9 -6 3 -8 -7 -6 -22 1 -16 8 -27 14 -26 6 2 11
-1 11 -7 0 -5 7 -7 15 -4 9 4 16 -3 21 -20 3 -15 13 -26 23 -26 10 0 12 -3 5
-8 -6 -4 -14 -14 -17 -22 -4 -10 -6 -8 -6 8 -1 12 -6 22 -12 22 -6 0 -9 7 -6
14 5 12 -1 14 -24 11 -16 -2 -27 1 -24 6 4 5 3 15 -1 21 -5 7 -9 19 -10 28 -1
8 -6 26 -10 40 -7 22 -6 24 9 11 11 -9 17 -10 17 -2 0 10 -14 15 -34 12 -5 -1
-12 3 -17 10 -4 6 -6 -9 -5 -35 2 -31 -1 -45 -8 -43 -6 3 -17 -2 -24 -9 -7 -8
-9 -14 -3 -14 5 0 12 -7 15 -16 3 -9 2 -12 -4 -9 -17 11 -67 17 -51 6 9 -6 10
-11 2 -15 -14 -9 -26 19 -15 35 4 7 3 9 -4 5 -5 -3 -13 0 -15 6 -3 7 -4 -2 -3
-20 2 -18 -1 -35 -6 -38 -5 -3 -7 -11 -5 -18 3 -6 -4 -12 -14 -12 -17 0 -23 9
-20 29 1 7 -4 8 -54 11 -18 0 -29 6 -28 14 2 6 -2 12 -7 12 -6 0 -10 -5 -10
-11 0 -6 -7 -8 -16 -5 -8 3 -13 2 -9 -3 8 -14 -6 -42 -18 -34 -5 3 -15 -1 -22
-10 -10 -14 -17 -14 -49 -5 -21 7 -40 17 -43 24 -2 6 -13 10 -24 7 -10 -3 -19
0 -19 6 0 6 -3 10 -7 10 -5 -1 -10 0 -13 1 -16 8 -80 4 -80 -5 0 -5 -5 -3 -10
6 -7 11 -22 16 -45 15 -19 -1 -35 3 -35 8 0 6 -5 5 -11 -1 -6 -6 -18 -9 -26
-6 -7 3 -24 -3 -36 -13 -16 -15 -19 -15 -9 -2 12 15 5 16 -100 13 -62 -1 -123
-3 -135 -4 -16 -1 -23 -8 -24 -23 -1 -17 -2 -19 -6 -5 -5 18 -28 23 -37 9 -3
-5 -15 -8 -28 -7 -13 1 -32 -5 -42 -14 -11 -9 -16 -11 -13 -4 5 8 0 11 -13 10
-11 -1 -20 -4 -20 -7 0 -3 -18 -7 -41 -9 -45 -2 -79 -19 -79 -38 0 -7 -4 -13
-9 -13 -6 0 -8 8 -6 19 3 14 -1 18 -16 14 -11 -3 -22 -9 -25 -14 -3 -5 3 -6
13 -3 15 5 16 4 3 -5 -9 -5 -28 -8 -44 -7 -16 2 -30 -2 -33 -10 -3 -8 -9 -11
-14 -9 -5 3 -23 -2 -41 -12 -18 -9 -39 -18 -47 -19 -8 -2 -26 -6 -40 -10 -14
-4 -29 -8 -33 -9 -5 -2 -11 -4 -15 -5 -5 -1 -11 -2 -15 -1 -5 0 -8 -7 -8 -16
0 -10 -4 -14 -8 -8 -10 15 -65 16 -74 2 -6 -9 -8 -9 -8 2 0 11 -4 10 -23 -2
-16 -10 -28 -12 -40 -5 -11 6 -17 5 -17 -1 0 -6 -10 -19 -22 -31 -14 -13 -17
-20 -8 -20 10 0 11 -3 3 -11 -14 -14 -36 -2 -29 16 2 7 -2 12 -9 11 -18 -3
-32 -16 -17 -16 7 0 12 -6 12 -12 -1 -8 -8 -4 -18 8 -10 11 -23 19 -29 17 -6
-2 -15 1 -19 8 -4 7 -3 9 2 6 6 -3 16 -1 24 4 11 7 9 8 -9 6 -14 -2 -27 -9
-29 -15 -2 -6 -11 -8 -20 -5 -14 4 -14 3 -2 -5 8 -6 18 -8 22 -6 4 3 8 0 8 -6
0 -7 6 -10 14 -7 7 3 18 1 23 -4 6 -6 26 -13 44 -16 19 -3 42 -9 52 -14 9 -5
17 -7 17 -3 0 3 6 1 14 -5 8 -6 18 -11 22 -10 37 6 49 -29 13 -38 -11 -3 -18
-11 -15 -19 3 -9 0 -11 -11 -7 -12 5 -14 3 -8 -7 5 -8 4 -11 -2 -7 -10 6 -63
-35 -63 -49 0 -3 9 -4 20 -1 11 3 17 1 14 -5 -3 -5 -18 -6 -34 -3 -24 5 -28 2
-34 -19 -3 -15 -12 -26 -18 -26 -6 0 -27 -17 -46 -37 -30 -34 -32 -38 -15 -45
13 -6 10 -7 -9 -3 -16 3 -30 0 -35 -8 -4 -7 -24 -25 -43 -41 -19 -16 -34 -33
-33 -37 2 -5 -4 -6 -12 -3 -8 4 -15 1 -15 -5 0 -6 -5 -11 -12 -11 -20 0 -79
-51 -72 -62 4 -7 2 -8 -5 -4 -14 9 -74 -32 -66 -45 4 -5 -1 -6 -10 -3 -16 6
-125 -54 -125 -69 0 -4 6 -5 13 0 6 4 30 9 52 10 49 2 90 8 178 26 37 8 67 13
67 10 0 -12 -55 -118 -62 -121 -5 -2 -3 -11 4 -20 8 -9 8 -13 2 -9 -14 8 -27
-20 -17 -35 4 -7 1 -8 -7 -3 -10 6 -12 4 -7 -8 3 -9 1 -17 -5 -19 -6 -2 -13
-13 -14 -24 -8 -54 -12 -72 -20 -85 -5 -8 -9 -22 -10 -31 -1 -10 -2 -19 -4
-20 -2 -3 -5 -19 -13 -60 -3 -15 -9 -33 -13 -40 -4 -7 -9 -26 -11 -43 -2 -16
-6 -37 -9 -45 -4 -8 -8 -32 -10 -52 -2 -20 -10 -51 -18 -67 -21 -40 -20 -45 4
-21 11 11 20 22 20 24 0 2 18 23 40 47 22 24 40 48 40 53 0 10 31 35 43 36 5
0 5 -5 2 -10 -4 -6 -3 -16 2 -23 5 -7 9 -24 8 -39 0 -16 2 -28 7 -28 4 0 12
-18 18 -40 6 -21 17 -46 26 -55 8 -8 13 -15 9 -15 -3 0 1 -13 10 -30 20 -39
36 -39 25 -1 -12 43 -5 174 16 285 8 43 36 116 45 116 5 0 10 -15 10 -32 1
-18 2 -44 4 -58 1 -14 3 -41 4 -60 2 -42 15 -25 25 34 4 21 11 46 16 55 4 9
20 45 35 81 14 36 30 72 35 80 5 8 16 29 23 45 8 17 37 68 66 113 28 45 51 84
51 87 0 9 43 55 52 55 8 0 4 -39 -12 -120 -4 -25 -11 -83 -15 -130 l-7 -85 51
78 c60 92 58 90 141 174 36 36 86 79 113 95 26 16 47 35 47 41 0 5 3 8 6 4 5
-5 113 70 134 93 16 17 72 51 77 46 4 -3 2 -16 -4 -29 -28 -57 -57 -123 -57
-127 -1 -3 -15 -24 -32 -45 -17 -22 -44 -60 -59 -85 -16 -24 -34 -51 -42 -58
-7 -7 -13 -20 -13 -28 0 -8 -5 -14 -12 -14 -6 0 -9 -3 -5 -6 3 -3 15 -3 26 1
14 4 18 11 14 23 -6 14 -4 15 8 5 11 -9 30 -4 89 24 41 19 77 39 78 44 2 5 10
9 17 9 41 0 230 121 349 223 30 26 43 31 52 23 8 -7 9 -17 3 -28 -5 -9 -9 -36
-9 -60 0 -46 -33 -228 -44 -247 -16 -25 11 -9 34 21 14 18 32 40 41 48 8 9 38
48 65 86 27 38 57 78 66 88 10 11 18 23 18 28 0 19 22 5 70 -44 27 -29 50 -58
50 -65 0 -6 4 -13 9 -15 9 -3 78 -147 120 -250 8 -20 42 -124 69 -213 l10 -30
13 48 c7 26 16 47 20 47 10 0 57 -155 71 -229 5 -31 14 -78 19 -106 5 -27 9
-97 9 -155 -1 -144 -2 -138 17 -110 20 30 61 70 72 70 4 0 18 10 31 22 18 17
36 22 74 23 49 0 51 -1 75 -45 21 -38 26 -61 29 -146 4 -92 2 -105 -22 -156
-14 -30 -35 -65 -45 -77 -11 -13 -21 -26 -23 -30 -2 -3 -34 -32 -72 -64 -81
-69 -171 -115 -215 -112 -17 2 -34 -1 -36 -6 -3 -4 -12 -6 -21 -2 -8 3 -14 2
-12 -3 5 -15 -115 -143 -217 -233 -28 -24 -42 -41 -33 -38 11 4 18 0 21 -11 4
-13 5 -11 6 5 0 11 16 33 34 48 69 56 147 137 190 198 8 12 34 21 80 27 62 9
146 48 155 71 2 5 8 9 14 9 6 0 33 20 59 45 26 25 53 45 59 45 5 0 10 8 10 18
0 11 8 18 21 19 12 1 27 7 33 13 8 8 6 9 -6 5 -16 -6 -16 -4 -7 24 6 17 15 28
20 25 5 -3 9 -2 10 3 3 32 11 59 22 68 6 5 9 6 5 1 -4 -5 -3 -17 3 -28 9 -16
6 -25 -10 -42 -12 -13 -24 -34 -26 -47 -3 -13 -9 -25 -15 -27 -5 -2 -10 -10
-10 -18 0 -8 -4 -14 -8 -14 -5 0 -7 -14 -4 -30 2 -17 0 -36 -5 -43 -16 -21 -9
-42 12 -39 16 2 17 1 5 -7 -15 -10 -24 -75 -9 -65 9 5 13 -10 10 -30 -1 -5 5
-4 13 4 9 7 16 18 16 25 0 7 12 21 27 31 16 10 23 19 15 22 -6 2 -12 8 -12 14
0 6 7 7 16 4 11 -4 18 1 21 14 3 11 12 20 20 20 8 0 11 -4 8 -10 -3 -6 4 -10
17 -10 18 0 20 2 8 10 -11 7 -11 10 -2 10 10 0 10 5 2 20 -8 15 -6 21 10 30
10 6 17 16 14 24 -3 7 2 16 11 20 12 4 15 13 11 31 -4 15 -2 25 4 25 6 0 8 -4
5 -10 -3 -5 -1 -10 5 -10 6 0 10 8 8 18 -2 9 -11 16 -20 16 -10 -1 -14 4 -11
12 3 8 9 12 13 9 4 -3 10 2 14 10 3 8 0 15 -6 15 -7 0 -3 7 8 15 10 8 15 15
10 15 -5 0 -2 8 5 17 12 15 12 16 -6 10 -20 -7 -20 -7 -1 8 11 8 14 15 7 15
-7 0 -9 5 -6 10 3 6 -1 10 -9 10 -9 0 -16 9 -16 20 0 11 4 20 10 20 5 0 6 -8
3 -17 -6 -16 -5 -16 10 -5 15 13 15 17 2 49 -18 42 -18 46 -5 38 6 -3 10 1 10
9 0 8 -8 20 -17 26 -12 7 -13 10 -3 7 8 -2 20 7 27 21 13 25 9 47 -8 37 -5 -4
-9 -1 -9 5 0 7 6 10 13 7 6 -2 18 2 25 9 7 8 8 14 3 14 -12 0 -2 32 13 42 7 5
3 8 -8 8 -16 0 -16 2 5 20 13 10 19 19 12 20 -6 0 -13 -6 -16 -12 -3 -10 -7
-10 -20 0 -13 11 -15 10 -10 -7 3 -13 1 -21 -8 -21 -8 0 -5 -6 7 -16 16 -13
16 -15 2 -10 -10 3 -20 1 -24 -5 -3 -6 -16 -14 -28 -19 -17 -7 -17 -9 -3 -9 9
-1 17 -9 17 -18 0 -16 -2 -16 -11 -3 -9 12 -10 10 -6 -8 4 -17 2 -22 -8 -18
-7 2 -18 -1 -25 -8 -8 -10 -7 -15 4 -19 8 -3 17 -2 20 4 2 5 3 4 2 -3 -2 -7
-15 -13 -29 -12 -17 0 -26 -5 -24 -12 1 -7 -7 -19 -18 -27 -16 -13 -17 -17 -6
-31 11 -13 11 -19 1 -31 -7 -8 -9 -15 -4 -15 11 -1 -27 -30 -38 -30 -14 0 -6
119 9 131 7 6 13 20 13 31 0 10 7 21 15 24 8 4 15 13 15 20 0 8 9 32 19 52 16
31 47 133 55 177 1 6 4 15 7 20 3 6 7 32 8 60 1 27 3 51 5 52 3 3 72 -110 91
-147 5 -11 13 -20 17 -20 5 0 8 -8 8 -17 0 -12 3 -14 10 -7 7 7 6 22 -5 47 -8
20 -15 47 -15 60 0 13 -3 27 -7 31 -4 3 -8 21 -9 39 0 17 -2 32 -4 32 -1 0 -4
14 -5 30 -2 17 -6 48 -9 70 -6 48 -17 138 -21 180 -7 69 -28 165 -36 171 -5 3
-9 14 -9 25 0 27 -72 241 -78 234 -3 -3 -11 3 -16 13 -21 36 -80 102 -93 102
-7 0 -13 5 -13 10 0 7 6 7 19 0 14 -7 21 -6 24 3 4 9 6 9 6 -1 1 -7 6 -10 11
-7 6 4 43 8 83 10 91 4 159 15 174 27 7 6 13 4 15 -4 3 -9 15 -6 41 12 39 27
39 45 -1 37 -28 -5 -131 21 -180 47 -18 9 -32 14 -32 11 0 -3 -16 1 -35 9 -19
8 -35 12 -35 9 0 -3 -6 -1 -13 4 -20 16 -105 36 -131 31 -35 -7 -38 11 -7 39
14 12 21 23 14 23 -7 0 -10 7 -6 16 5 14 8 12 19 -7 l13 -24 1 23 c0 12 4 22
9 22 5 0 13 9 16 20 4 11 11 18 16 15 5 -4 9 1 9 9 0 8 6 13 13 10 8 -3 13 5
15 23 1 15 7 32 14 38 8 7 9 6 3 -4 -5 -10 -4 -12 4 -7 6 4 9 12 6 17 -4 5 5
13 18 18 13 5 27 17 31 26 4 11 2 14 -6 9 -6 -4 -3 4 8 18 10 14 22 24 27 21
11 -6 9 11 -3 23 -7 7 -5 10 7 10 10 -1 20 4 21 9 2 6 8 16 14 23 7 8 7 12 -1
12 -8 0 -7 5 3 15 18 18 30 20 20 3 -4 -8 -3 -10 2 -5 5 5 9 14 9 20 0 7 8 11
18 11 9 -1 14 2 11 7 -3 5 1 9 8 9 9 0 9 3 -2 10 -14 9 -6 15 15 10 5 -1 7 2
3 6 -9 9 23 64 37 64 5 0 16 9 22 20 11 16 10 18 -2 14 -8 -4 -15 -1 -15 5 0
6 9 11 19 11 14 0 19 6 18 20 -1 11 -5 20 -10 20 -5 0 -6 11 -3 24 4 16 1 26
-9 30 -9 3 -20 16 -25 28 -10 22 -10 22 -6 -2 6 -29 -8 -59 -18 -41 -4 6 -11
9 -16 6 -4 -3 -10 4 -13 16 -3 13 -12 19 -24 17 -12 -2 -19 4 -21 20 -2 12 1
23 7 23 6 1 16 3 21 4 6 1 13 3 18 4 4 1 0 6 -8 11 -8 5 -10 10 -4 10 18 0 24
-12 13 -26 -9 -11 -7 -15 6 -20 13 -5 14 -9 3 -15 -10 -6 -10 -10 0 -19 6 -5
10 -7 7 -4 -3 4 0 14 7 21 9 11 9 16 -1 23 -9 5 -10 9 -2 14 6 4 9 11 6 16 -8
12 6 41 16 34 5 -3 6 -11 2 -17 -11 -17 -10 -41 2 -49 19 -14 27 -8 14 10 -11
14 -10 13 9 -2 12 -11 22 -24 22 -30 0 -6 -4 -5 -9 3 -6 10 -10 10 -16 1 -4
-6 1 -17 11 -25 19 -13 39 -11 30 4 -3 4 5 7 17 6 24 -2 26 -20 2 -20 -16 0
-19 -8 -13 -27 3 -8 11 -4 23 9 10 12 22 20 26 17 8 -4 49 74 49 94 0 6 -8 16
-17 22 -17 11 -17 11 0 6 10 -3 21 -6 23 -6 2 0 4 -7 4 -16 0 -8 5 -12 11 -9
6 4 8 14 5 22 -4 11 -2 13 9 9 9 -3 15 0 15 8 0 7 7 19 16 27 10 8 13 21 9 38
-6 22 -5 23 11 10 10 -8 15 -9 11 -2 -7 11 19 33 35 30 3 -1 10 2 15 7 5 5 3
6 -4 2 -7 -4 -13 -3 -13 1 0 12 40 44 48 39 4 -2 9 7 10 21 2 22 0 24 -13 13
-12 -10 -18 -10 -30 0 -16 13 -11 30 8 30 8 0 8 -3 -2 -9 -9 -6 -10 -10 -2
-16 7 -4 18 -2 25 4 7 6 16 8 19 5 9 -9 39 24 33 35 -8 12 19 33 29 23 5 -4 5
-2 2 4 -4 7 0 14 8 18 17 6 20 26 4 26 -5 0 -7 -4 -4 -10 3 -5 -1 -10 -9 -10
-8 0 -18 5 -21 10 -4 6 -10 8 -15 5 -5 -3 -11 -1 -15 5 -3 5 3 10 14 10 10 0
22 -6 24 -12 4 -10 6 -10 6 0 1 10 52 12 236 12 216 -1 236 -3 245 -19 5 -10
6 -22 2 -26 -4 -5 -1 -5 5 -1 9 5 11 2 7 -9 -4 -9 -11 -12 -18 -7 -18 14 -39
8 -42 -11 -2 -15 0 -16 12 -6 23 19 28 3 5 -20 -12 -12 -21 -15 -24 -8 -2 6
-6 4 -10 -6 -3 -9 -3 -16 1 -16 19 3 32 -2 32 -12 0 -6 -7 -8 -16 -5 -8 3 -12
2 -9 -4 3 -6 2 -10 -4 -10 -6 0 -8 -7 -4 -16 5 -13 7 -13 14 -2 5 7 9 8 9 2 0
-5 -6 -16 -12 -23 -7 -8 -8 -11 -2 -8 7 4 10 -6 8 -31 -2 -20 -3 -43 -3 -50
-1 -8 -6 -10 -13 -6 -10 6 -10 5 -1 -7 10 -12 10 -18 0 -29 -10 -10 -9 -11 2
-5 11 6 13 4 8 -8 -3 -9 -2 -19 4 -23 6 -4 6 -11 -2 -20 -9 -11 -9 -14 0 -14
8 0 10 -8 6 -21 -6 -19 -5 -20 17 -8 22 11 22 11 8 -6 -14 -16 -13 -17 5 -11
18 5 21 2 20 -23 0 -16 -4 -27 -9 -24 -10 7 3 -37 16 -54 7 -9 7 -13 -2 -13
-10 0 -10 -3 -1 -14 9 -11 9 -22 -3 -50 -15 -36 -36 -49 -36 -21 0 8 -5 15
-10 15 -7 0 -7 -7 0 -20 6 -11 8 -25 5 -30 -3 -6 -2 -10 3 -10 13 0 42 34 42
49 0 7 6 11 14 8 10 -4 13 1 11 21 -1 14 1 33 5 41 25 48 34 139 15 154 -6 4
-5 10 3 15 9 7 10 16 1 41 -10 28 -13 31 -21 17 -13 -22 -39 -21 -31 2 4 9 13
23 21 31 7 8 10 17 5 20 -4 3 -9 19 -10 36 -1 16 -9 34 -16 40 -16 11 -19 45
-4 45 5 0 7 -6 4 -14 -6 -15 11 -36 30 -36 7 0 10 7 7 15 -4 8 -10 12 -15 9
-5 -3 -9 -2 -8 3 5 30 -2 45 -21 40 -11 -3 -20 -1 -20 4 0 5 7 9 16 9 8 0 12
5 9 10 -8 13 1 13 26 0 16 -9 19 -7 19 11 0 17 -3 19 -14 10 -12 -10 -17 -8
-27 11 -11 21 -11 22 5 9 11 -9 20 -11 24 -5 8 11 27 12 38 2 4 -5 1 -8 -7 -9
-14 0 18 -16 35 -17 5 0 13 -6 17 -14 7 -10 9 -9 9 5 0 16 -12 22 -35 17 -5
-1 -7 2 -2 6 4 4 0 18 -8 30 -8 13 -11 25 -6 29 5 3 15 -8 23 -25 7 -16 16
-30 21 -30 4 0 1 14 -8 30 -16 31 -13 35 25 31 10 -1 8 4 -7 17 -21 19 -18 19
182 21 158 2 205 -1 212 -11 11 -18 43 -19 36 -2 -4 10 4 14 31 14 20 0 36 -4
36 -10 0 -5 7 -10 15 -10 8 0 15 4 15 8 0 5 7 9 15 9 12 0 15 -10 14 -43 -2
-24 -6 -41 -9 -39 -3 2 -5 17 -4 34 1 22 -2 28 -12 24 -11 -4 -12 -9 -4 -18 8
-10 8 -15 -1 -21 -8 -4 -9 -3 -5 4 4 7 2 12 -3 12 -6 0 -11 -3 -12 -7 0 -5 -2
-18 -3 -31 -2 -18 1 -21 18 -17 17 4 16 3 -3 -7 -19 -10 -25 -10 -29 0 -5 15
-29 16 -38 0 -5 -7 -2 -9 8 -5 17 6 20 -23 4 -35 -6 -4 -5 -12 2 -20 9 -11 7
-18 -10 -32 -20 -18 -21 -18 -15 3 3 12 0 21 -6 21 -7 0 -5 5 3 10 17 11 1 13
-25 4 -13 -6 -14 -9 -3 -15 11 -8 -3 -8 -42 1 -3 0 3 5 13 11 24 14 21 42 -5
54 -14 6 -22 17 -20 29 3 15 1 16 -11 5 -12 -12 -10 -17 14 -40 30 -28 41 -51
14 -29 -13 11 -14 10 -10 -3 4 -8 2 -18 -4 -22 -6 -3 -11 -1 -11 4 0 6 -5 11
-11 11 -6 0 -7 -5 -2 -12 10 -17 11 -58 1 -58 -4 0 -8 -4 -8 -10 0 -5 8 -7 18
-3 13 5 12 0 -7 -20 -22 -25 -25 -25 -48 -10 -16 11 -27 13 -34 6 -8 -8 -7
-13 2 -18 8 -5 10 -4 5 3 -12 21 12 13 27 -8 8 -11 17 -17 20 -13 4 3 7 -5 7
-20 0 -20 -5 -26 -22 -25 -13 1 -29 6 -35 11 -9 6 -13 6 -13 -2 0 -6 11 -13
23 -16 22 -6 34 -35 15 -35 -4 0 -8 -8 -8 -17 0 -15 2 -16 10 -3 8 12 10 9 10
-13 0 -25 -2 -27 -32 -22 -22 4 -28 2 -19 -4 7 -5 10 -15 7 -22 -4 -8 0 -5 8
5 9 11 16 15 16 9 0 -16 -28 -36 -41 -28 -6 4 -3 -4 6 -19 9 -14 21 -24 25
-21 4 3 10 -2 14 -10 3 -8 1 -17 -4 -20 -13 -8 -32 4 -25 16 4 5 -1 9 -10 9
-9 0 -13 -4 -10 -10 3 -5 0 -10 -8 -10 -8 0 -17 -7 -21 -15 -4 -13 -2 -13 14
-5 27 14 34 12 20 -6 -11 -12 -11 -15 0 -12 7 2 15 -3 18 -11 2 -8 0 -11 -6
-7 -5 3 -12 -1 -16 -9 -3 -9 0 -15 10 -15 14 0 14 -2 0 -15 -16 -17 -30 -20
-21 -5 3 5 1 18 -5 27 -9 15 -10 10 -7 -24 4 -35 2 -41 -11 -36 -10 4 -13 2
-8 -5 4 -7 2 -12 -4 -12 -6 0 -8 -5 -5 -10 4 -6 16 -8 27 -4 18 5 19 4 7 -9
-8 -8 -20 -12 -28 -9 -9 3 -12 1 -7 -6 4 -7 13 -12 20 -12 7 0 22 -9 34 -20
18 -17 22 -18 22 -5 0 8 -4 15 -10 15 -5 0 -10 4 -10 9 0 5 9 7 20 4 27 -7 25
5 -2 18 -22 9 -22 9 4 6 24 -4 26 -2 17 20 -12 32 -12 33 8 26 13 -5 15 -2 10
11 -5 13 -3 17 6 13 10 -4 13 5 11 33 -1 22 -5 44 -9 49 -3 6 0 8 9 5 11 -4
13 0 9 18 -6 20 -4 21 9 10 13 -10 15 -9 13 10 -1 13 -3 23 -5 23 -1 0 -3 10
-4 22 -1 12 2 19 7 16 5 -3 6 4 2 18 -6 20 -5 22 6 12 19 -19 28 -16 22 7 -3
11 -9 18 -13 15 -4 -3 -10 2 -13 10 -4 10 -1 12 10 8 11 -4 14 -2 9 5 -8 13 5
16 20 5 5 -5 1 0 -8 9 -18 16 -18 17 2 23 11 4 17 11 14 17 -4 7 -2 8 4 4 6
-4 8 -14 5 -23 -5 -12 -3 -14 7 -8 10 6 12 4 7 -9 -4 -10 -3 -15 3 -11 9 6 14
-8 11 -28 -1 -5 3 -6 9 -2 6 3 8 11 5 16 -6 8 9 13 28 10 5 -1 6 3 2 9 -9 14
8 13 23 -2 9 -9 12 -9 12 1 0 7 4 10 8 7 4 -2 14 0 22 5 13 9 13 10 0 6 -8 -2
-21 3 -28 12 -12 14 -13 14 -8 -1 3 -10 1 -18 -4 -18 -6 0 -10 4 -10 8 0 5 -7
9 -15 9 -8 0 -15 -5 -15 -10 0 -5 -6 -4 -14 3 -16 13 -10 44 6 34 6 -4 5 -10
-3 -15 -18 -11 0 -10 26 1 11 5 15 9 8 9 -13 1 -13 58 0 79 5 6 5 17 1 23 -4
8 -9 7 -15 -2 -5 -8 -9 -9 -9 -3 0 6 8 18 17 25 10 8 14 9 10 2 -4 -6 0 -16 9
-21 14 -8 14 -10 1 -24 -12 -11 -13 -18 -4 -27 6 -6 7 -11 2 -11 -6 0 -3 -5 5
-11 12 -9 12 -10 -3 -5 -12 4 -17 2 -15 -6 3 -7 13 -15 23 -16 15 -3 17 1 11
22 -5 20 -3 26 9 26 10 0 14 -5 10 -12 -4 -7 0 -5 8 5 13 15 15 10 15 -55 1
-50 -2 -67 -8 -53 -7 16 -9 17 -9 3 -1 -9 3 -19 9 -23 5 -3 9 -42 8 -86 0 -48
-4 -75 -9 -67 -7 10 -9 9 -9 -3 0 -9 -7 -29 -14 -45 -8 -15 -12 -32 -8 -38 4
-7 8 -3 10 9 3 11 11 29 18 40 12 17 14 17 14 2 0 -9 -4 -17 -10 -17 -5 0 -10
-9 -10 -21 0 -11 4 -18 8 -15 5 3 9 -1 9 -9 0 -8 -4 -12 -9 -9 -4 3 -8 -8 -8
-25 0 -22 -4 -29 -14 -25 -8 3 -17 0 -22 -7 -5 -8 -3 -10 7 -4 11 6 12 5 1 -6
-10 -10 -17 -11 -30 -2 -15 9 -21 7 -32 -11 -12 -19 -12 -20 4 -7 19 16 18 17
33 -26 9 -28 9 -33 -4 -33 -12 0 -12 -2 1 -16 20 -19 20 -20 2 -27 -11 -4 -13
-1 -9 11 6 14 5 15 -9 2 -12 -11 -13 -19 -5 -28 6 -8 13 -9 16 -3 4 5 11 7 16
3 13 -9 18 -35 6 -28 -5 4 -12 2 -16 -4 -3 -5 -1 -10 4 -10 6 0 11 -7 11 -16
0 -12 -3 -14 -13 -6 -10 9 -17 6 -29 -8 -9 -10 -14 -21 -10 -24 3 -4 12 4 19
16 9 18 12 19 13 6 0 -9 -4 -20 -10 -23 -15 -9 -12 -22 7 -29 9 -4 20 -2 23 5
6 8 9 8 14 0 4 -6 16 -11 26 -11 19 0 19 -19 19 -717 0 -395 -3 -712 -6 -705
-2 6 -9 12 -15 12 -6 0 -8 -7 -5 -15 4 -8 2 -17 -3 -20 -6 -4 -10 -12 -10 -18
0 -8 3 -7 9 2 7 11 9 11 13 0 7 -18 -10 -51 -22 -44 -5 3 -11 1 -15 -5 -3 -5
-1 -10 6 -10 9 0 9 -3 0 -14 -9 -11 -9 -15 1 -19 10 -4 10 -6 1 -6 -21 -1 -15
-21 8 -29 20 -8 20 -9 3 -23 -10 -7 -15 -9 -11 -3 9 16 -28 44 -44 33 -10 -6
-10 -9 -2 -9 7 0 19 -13 28 -30 10 -19 11 -30 5 -30 -6 0 -8 -5 -5 -10 3 -5 1
-10 -4 -10 -6 0 -11 -4 -11 -10 0 -5 7 -10 16 -10 14 0 14 -3 4 -16 -7 -8 -23
-14 -34 -12 -12 1 -28 -2 -36 -6 -12 -7 -13 -6 -3 4 9 9 9 19 2 32 -9 16 -7
20 10 25 24 6 27 16 7 32 -15 13 -46 5 -46 -12 0 -6 -2 -8 -5 -5 -9 8 6 38 16
32 5 -3 9 -1 9 5 0 5 16 19 36 32 26 16 32 24 22 30 -7 5 -14 4 -16 -1 -2 -6
-10 -10 -18 -10 -9 0 -13 -4 -9 -9 3 -6 -5 -15 -17 -22 -20 -11 -21 -10 -11 3
18 22 -7 19 -29 -3 -14 -15 -14 -18 -2 -23 9 -3 12 -11 9 -16 -4 -6 -3 -16 3
-23 18 -24 22 -47 7 -47 -8 0 -12 6 -9 14 3 8 0 17 -7 21 -7 5 -10 3 -7 -6 3
-8 1 -24 -3 -36 -7 -18 -5 -21 9 -16 14 5 15 3 5 -8 -18 -19 -16 -34 2 -19 15
12 20 4 16 -22 0 -5 4 -8 10 -8 6 0 8 -9 4 -20 -5 -15 -3 -18 9 -14 9 3 16 2
16 -4 0 -15 -26 -33 -35 -24 -4 4 -3 -3 4 -15 15 -30 14 -43 -4 -43 -13 0 -13
-2 -3 -14 8 -9 15 -10 19 -4 4 6 13 8 20 6 8 -3 23 -1 34 5 18 9 19 9 6 -6
-11 -15 -11 -17 2 -17 9 0 19 5 22 10 7 12 25 13 25 2 0 -14 -70 -32 -71 -19
0 7 -4 3 -9 -8 -7 -16 -9 -16 -9 -4 -1 25 -51 20 -51 -4 0 -14 -5 -17 -19 -12
-11 3 -22 1 -26 -5 -3 -6 -11 -8 -16 -5 -5 4 -9 1 -9 -4 0 -6 5 -11 11 -11 8
0 8 -4 0 -14 -9 -11 -9 -15 1 -19 10 -4 10 -6 1 -6 -7 -1 -13 -6 -13 -12 0 -5
4 -8 9 -5 5 3 11 -3 14 -14 3 -11 1 -20 -4 -20 -5 0 -9 5 -9 12 0 6 -3 8 -6 5
-4 -4 -1 -14 7 -23 11 -14 10 -15 -7 -12 -14 2 -19 -3 -19 -22 -1 -14 3 -28 8
-31 5 -4 4 -9 -2 -13 -6 -4 -11 -2 -11 3 0 6 -7 11 -16 11 -10 0 -14 -6 -10
-15 3 -8 1 -15 -4 -15 -6 0 -10 5 -10 11 0 5 -5 7 -11 3 -8 -4 -8 -9 0 -17 14
-14 14 -47 1 -47 -5 0 -7 -7 -3 -16 4 -10 0 -20 -10 -25 -10 -6 -14 -19 -11
-37 l4 -27 -13 24 c-13 21 -15 22 -21 5 -4 -9 -2 -21 5 -24 8 -6 8 -9 0 -14
-6 -4 -11 -12 -11 -17 0 -6 5 -7 12 -3 7 4 8 3 4 -4 -11 -18 -23 -14 -29 8 -3
11 0 20 5 20 7 0 6 5 -1 13 -6 8 -7 18 -3 22 4 5 2 5 -5 2 -6 -4 -10 -20 -9
-37 2 -23 -1 -27 -11 -18 -7 6 -13 7 -13 4 0 -13 23 -51 39 -64 14 -12 13 -13
-6 -9 -15 4 -23 0 -23 -9 0 -21 4 -29 13 -26 5 1 6 -2 2 -8 -3 -5 -12 -10 -20
-10 -7 0 -15 -7 -18 -15 -5 -12 -2 -12 18 -3 14 6 25 15 25 20 0 5 5 6 11 2 7
-4 7 2 -1 17 -7 13 -9 21 -5 17 14 -13 47 13 42 33 -3 10 -1 19 4 19 6 0 9 6
8 13 -3 26 2 37 17 37 10 0 14 6 11 15 -4 8 -1 17 5 21 7 4 8 3 4 -4 -11 -19
5 -14 23 6 9 10 25 24 36 31 15 9 16 11 3 7 -10 -3 -18 -1 -18 4 0 6 5 10 11
10 6 0 8 10 5 23 l-6 22 11 -22 c7 -13 19 -23 27 -23 9 0 13 -3 9 -6 -3 -4 4
-15 16 -26 12 -11 15 -16 7 -12 -8 5 -24 10 -35 12 -20 3 -20 3 0 -12 11 -9
15 -16 8 -16 -7 0 -10 -6 -7 -14 3 -8 -3 -19 -13 -25 -14 -7 -19 -19 -18 -45
1 -22 -3 -37 -11 -40 -8 -3 -14 -10 -14 -16 0 -6 5 -8 12 -4 7 5 8 3 4 -5 -5
-7 -14 -10 -21 -7 -9 3 -12 -2 -10 -15 5 -26 -16 -74 -25 -58 -4 6 -9 -3 -12
-20 -3 -18 -1 -34 4 -37 11 -7 10 -25 -1 -22 -5 2 -9 1 -8 -2 0 -3 -12 -24
-26 -47 -32 -51 -33 -57 -7 -50 11 3 18 1 15 -3 -11 -18 17 -21 31 -4 9 11 12
13 8 5 -5 -9 -3 -12 4 -7 7 4 12 13 12 21 0 8 9 20 20 28 19 13 19 15 4 21
-16 6 -16 7 1 20 18 13 45 77 45 109 0 9 6 17 14 17 10 0 13 8 11 22 -3 12 0
27 6 34 6 7 8 18 4 24 -3 5 0 10 7 10 9 0 9 3 -2 10 -13 9 -13 10 0 11 8 1 18
1 23 0 4 -1 6 15 4 34 -3 27 0 36 14 40 11 4 22 17 25 31 4 14 11 21 18 17 8
-5 8 -3 1 8 -6 8 -10 21 -9 29 1 8 2 21 3 28 0 7 5 11 10 8 15 -10 22 25 9 42
-10 13 -10 14 0 8 7 -4 15 -1 18 8 3 9 11 13 17 9 6 -4 7 -1 3 6 -5 7 -1 20 6
29 9 11 14 37 14 69 -1 29 2 53 7 53 4 0 7 -288 7 -640 0 -420 -3 -640 -10
-640 -5 0 -10 -10 -10 -23 0 -13 -6 -29 -12 -36 -11 -11 -10 -12 2 -6 12 7 13
6 3 -7 -7 -8 -9 -19 -5 -23 4 -5 2 -5 -4 -2 -17 10 -47 -29 -41 -53 5 -18 -3
-25 -25 -21 -4 0 -5 -5 -2 -13 3 -8 1 -17 -5 -20 -12 -8 -33 28 -23 39 4 5 -1
5 -10 2 -14 -5 -18 -1 -18 14 0 15 -5 19 -15 15 -9 -3 -15 0 -15 10 0 8 -4 13
-9 9 -5 -3 -12 -1 -15 4 -7 11 13 9 34 -4 13 -7 13 -6 2 7 -7 8 -10 24 -6 34
5 16 4 16 -5 4 -9 -13 -11 -12 -11 5 0 12 6 27 12 34 10 11 10 13 1 7 -8 -4
-13 -1 -13 8 0 10 -6 13 -17 9 -11 -4 -14 -3 -9 5 5 8 0 12 -13 12 -12 0 -21
-6 -21 -14 0 -8 -8 -17 -17 -20 -12 -5 -14 -9 -5 -18 7 -7 12 -17 12 -22 0 -6
-5 -4 -10 4 -12 20 -35 -2 -26 -25 5 -14 9 -15 21 -5 13 11 14 10 8 -5 -5 -14
-3 -17 9 -13 11 5 15 -1 16 -20 0 -46 1 -49 30 -67 15 -10 21 -12 15 -4 -7 7
-13 22 -13 34 0 16 -2 17 -10 5 -8 -12 -10 -10 -10 9 l0 24 23 -21 c16 -15 27
-19 35 -12 8 7 9 7 3 -1 -5 -6 -7 -18 -4 -25 3 -8 0 -20 -6 -28 -9 -10 -7 -17
6 -27 16 -13 17 -12 4 4 -17 21 2 23 19 2 20 -24 -1 -40 -30 -25 -22 12 -22
12 -7 -11 15 -20 15 -25 2 -39 -13 -14 -13 -19 1 -38 8 -12 20 -22 26 -22 7 0
6 6 -2 15 -18 21 -7 19 20 -5 18 -15 26 -17 37 -9 11 9 12 8 7 -5 -5 -12 -2
-15 12 -9 9 3 15 2 12 -3 -4 -5 4 -10 17 -10 24 -2 45 29 58 81 3 11 5 -266 5
-615 1 -388 -3 -626 -8 -612 -5 12 -12 22 -14 22 -3 0 -3 -7 0 -15 8 -21 -6
-41 -17 -24 -6 10 -10 5 -15 -18 -6 -32 -24 -46 -24 -20 0 6 -5 4 -11 -6 -6
-10 -8 -25 -5 -34 5 -13 4 -14 -9 -3 -18 15 -20 -1 -3 -18 7 -7 8 -12 4 -12
-5 0 -2 -8 5 -17 13 -16 12 -17 -3 -4 -10 7 -15 18 -11 24 3 6 1 7 -6 3 -6 -4
-9 -11 -6 -16 3 -5 1 -11 -5 -15 -16 -10 -8 69 8 81 12 9 12 13 2 19 -9 5 -11
4 -6 -3 4 -7 2 -12 -3 -12 -6 0 -11 8 -12 18 0 13 -2 14 -6 2 -3 -8 -12 -21
-21 -28 -14 -11 -14 -12 1 -12 24 0 19 -57 -6 -75 -11 -7 -16 -18 -12 -24 3
-6 0 -11 -7 -11 -8 -1 -6 -6 6 -15 11 -8 16 -15 12 -15 -5 0 -3 -7 4 -15 8 -9
9 -15 2 -15 -6 0 -9 -9 -7 -20 2 -11 -1 -20 -7 -20 -7 0 -7 -4 0 -12 7 -9 6
-17 -4 -26 -12 -11 -13 -9 -11 10 1 15 -4 23 -18 26 -15 2 -16 1 -7 -6 11 -7
11 -10 -2 -15 -31 -12 -18 -37 19 -37 35 0 35 0 35 -44 0 -63 -7 -76 -42 -76
-17 0 -27 4 -23 10 3 6 15 10 26 10 16 0 19 7 19 40 0 35 -3 40 -23 40 -19 0
-26 -10 -41 -55 -11 -30 -22 -52 -27 -50 -10 7 -39 -5 -39 -17 0 -5 5 -6 10
-3 6 3 10 1 10 -5 0 -7 7 -10 18 -6 14 5 13 3 -3 -10 -11 -8 -19 -22 -17 -30
2 -12 -23 -14 -160 -14 -90 0 -157 4 -150 9 7 4 16 34 19 66 4 41 3 56 -5 51
-6 -4 -10 -12 -8 -19 1 -7 1 -9 -1 -5 -3 5 -17 5 -31 2 l-27 -6 25 21 c14 11
28 21 33 21 4 0 7 5 7 10 0 6 -13 10 -30 10 l-30 0 17 35 c16 33 33 46 33 25
0 -5 5 -10 11 -10 7 0 9 11 6 30 -4 16 -2 32 3 35 6 4 8 11 5 16 -4 5 -2 9 4
9 6 0 8 7 5 15 -4 10 0 15 11 15 10 0 13 4 8 13 -14 22 -12 39 3 33 12 -4 14
-1 9 15 -5 14 1 28 20 47 24 24 25 27 8 33 -10 4 -12 8 -5 8 6 1 12 11 12 22
0 19 2 20 17 8 15 -13 15 -12 3 11 -12 23 -12 24 3 11 16 -12 17 -10 12 25 -2
22 -1 34 3 27 5 -8 13 -9 22 -3 8 6 11 10 6 10 -5 0 -4 6 2 13 14 16 13 79 -1
70 -6 -3 -7 -1 -3 6 4 6 12 8 18 5 16 -10 37 24 30 49 -5 20 -4 20 11 8 10 -8
17 -9 17 -3 0 6 -4 13 -9 16 -15 10 0 48 16 41 10 -3 13 -1 10 9 -3 7 0 19 6
25 16 16 27 14 21 -4 -8 -20 -2 -19 25 4 13 11 20 24 17 29 -3 5 2 24 11 43
12 23 13 34 5 37 -7 2 -12 8 -12 13 0 6 5 7 10 4 6 -3 10 -1 10 4 0 6 -4 11
-10 11 -5 0 -10 5 -10 11 0 5 5 7 10 4 6 -3 10 -1 10 4 0 10 -12 15 -31 13 -7
-1 -4 71 4 85 9 14 -19 37 -34 28 -8 -6 -8 -2 0 14 7 11 9 21 5 21 -3 0 -1 6
5 14 8 10 9 16 1 21 -9 5 -15 -15 -11 -38 1 -5 -3 -6 -8 -3 -5 3 -8 20 -7 36
1 19 -2 29 -9 26 -7 -2 -10 6 -7 25 2 16 8 29 13 29 6 0 14 10 19 23 7 19 9
19 9 3 1 -14 4 -16 14 -7 8 6 17 7 22 3 4 -4 3 2 -2 13 -13 26 -1 71 18 67 9
-2 7 3 -5 17 -11 12 -15 21 -10 21 5 0 2 5 -6 10 -11 7 -9 8 11 6 13 -1 31 -6
39 -11 10 -5 10 -2 -2 10 -13 14 -14 24 -7 43 5 14 8 35 7 46 -2 13 2 20 10
18 8 -1 11 2 7 8 -4 6 -13 9 -20 6 -15 -6 -28 20 -18 37 3 7 -4 3 -17 -8 l-23
-20 19 29 c20 32 27 59 13 50 -5 -3 -9 0 -9 5 0 6 8 11 17 11 13 0 14 3 5 12
-14 14 -16 32 -4 24 5 -3 14 4 22 14 8 10 18 16 23 13 6 -4 8 3 5 15 -4 13 -1
22 5 22 7 0 4 7 -7 15 -11 8 -16 20 -12 30 10 26 -17 12 -31 -16 -7 -13 -13
-18 -13 -11 0 7 6 23 14 35 7 12 13 32 12 44 -2 12 1 20 5 18 4 -3 9 4 12 14
5 21 -19 38 -26 18 -2 -7 -3 -4 -2 5 2 10 -4 23 -13 30 -13 11 -14 11 -8 -1 6
-9 5 -12 -5 -9 -8 3 -13 13 -11 23 2 11 -1 14 -8 10 -7 -4 -10 -16 -7 -26 3
-11 1 -17 -4 -13 -5 3 -9 11 -9 18 0 16 -49 51 -58 42 -3 -3 -1 -6 5 -6 6 0
13 -9 16 -21 3 -12 9 -19 14 -16 5 3 9 -3 9 -14 0 -18 -2 -18 -12 -5 -6 9 -16
16 -23 16 -6 0 -10 5 -9 11 2 6 -3 14 -10 16 -9 4 -10 -1 -2 -22 13 -33 13
-38 0 -30 -5 3 -10 -1 -10 -10 0 -13 4 -14 21 -5 18 10 19 10 10 -8 -6 -11 -7
-23 -3 -27 4 -5 1 -5 -5 -1 -7 4 -13 2 -13 -3 0 -6 -8 -11 -17 -11 -22 0 -8
-13 18 -17 12 -2 18 1 14 7 -3 5 -1 10 4 10 13 0 14 -17 2 -24 -5 -3 -11 -20
-13 -36 -4 -25 -2 -30 11 -25 12 5 12 2 -2 -13 -18 -20 -24 -67 -7 -57 6 4 7
11 4 17 -4 6 2 5 15 -2 12 -6 19 -15 16 -20 -3 -5 -1 -11 5 -15 14 -8 13 -25
-2 -25 -6 0 -8 3 -5 7 8 8 -12 33 -26 33 -8 0 -8 -3 0 -11 6 -6 9 -18 6 -27
-4 -10 -2 -13 5 -8 7 4 12 2 12 -4 0 -6 4 -9 9 -5 5 3 12 1 16 -5 3 -5 -1 -10
-9 -10 -9 0 -16 -5 -16 -12 0 -6 -3 -9 -6 -5 -9 9 -27 -12 -46 -53 -27 -60
-31 -80 -14 -80 10 0 14 -8 11 -27 -2 -16 -4 -31 -4 -35 -1 -5 -13 -8 -28 -8
-16 0 -23 -4 -18 -8 6 -4 10 -18 10 -32 0 -14 5 -24 12 -23 8 2 10 -4 6 -14
-5 -13 -2 -15 13 -9 16 6 17 5 6 -6 -11 -11 -16 -9 -31 10 -16 22 -18 23 -32
6 -12 -16 -12 -17 4 -11 11 4 17 2 17 -8 0 -9 -6 -12 -15 -9 -8 4 -15 1 -15
-5 0 -6 5 -11 11 -11 5 0 7 -5 3 -11 -3 -6 0 -15 7 -20 10 -6 8 -9 -10 -9 -24
0 -24 0 -5 -22 10 -12 14 -18 7 -15 -6 4 -15 2 -19 -4 -4 -7 -3 -9 3 -6 24 15
42 -49 19 -66 -7 -6 -6 -7 4 -4 8 2 15 11 15 20 0 26 15 32 16 6 1 -13 0 -28
-1 -34 -1 -5 2 -7 6 -2 4 4 15 0 24 -8 14 -13 16 -12 17 8 2 18 0 19 -8 7 -9
-13 -10 -12 -6 2 3 9 1 19 -6 22 -8 3 -6 5 3 5 28 2 38 -30 23 -68 -11 -27
-17 -31 -24 -20 -7 11 -9 9 -9 -9 0 -19 -4 -22 -21 -17 -19 6 -20 4 -16 -38 3
-25 8 -50 11 -56 5 -7 0 -9 -11 -5 -16 5 -16 4 1 -10 11 -9 16 -16 11 -16 -4
0 0 -10 11 -22 10 -12 13 -18 6 -14 -8 5 -17 -3 -26 -24 -7 -17 -17 -31 -22
-31 -5 0 -9 -8 -9 -19 0 -10 -5 -23 -9 -27 -5 -5 -6 -2 -1 7 6 12 5 13 -6 3
-10 -10 -10 -16 -1 -25 15 -15 15 -28 1 -28 -5 0 -7 5 -3 12 4 7 3 8 -4 4 -7
-4 -12 -14 -12 -22 0 -8 -4 -14 -9 -14 -5 0 -11 -14 -15 -30 -4 -20 -14 -34
-31 -40 -16 -6 -23 -14 -19 -22 4 -7 3 -8 -5 -4 -6 4 -9 12 -6 17 4 5 3 9 -2
9 -4 0 -9 14 -10 30 -1 17 2 30 6 30 5 0 12 7 15 16 4 9 2 13 -5 8 -14 -8 -29
14 -22 33 3 7 10 10 17 6 6 -3 3 3 -6 14 -20 22 -23 33 -7 33 5 0 7 -6 3 -12
-5 -10 -4 -10 6 -1 10 9 9 18 -4 44 -9 18 -14 35 -11 37 3 3 5 0 5 -6 0 -7 4
-12 10 -12 5 0 3 14 -4 32 -9 22 -11 40 -5 56 6 15 5 21 -1 17 -14 -9 -13 8 2
23 8 8 8 15 -2 27 -9 10 -9 15 -1 15 7 0 5 10 -6 28 -15 22 -15 25 -2 14 14
-10 16 -9 12 12 -3 13 0 33 6 45 8 15 8 21 1 21 -7 0 -8 6 0 19 7 14 7 22 -2
27 -7 4 -8 3 -4 -4 4 -7 2 -12 -3 -12 -14 0 -14 13 1 28 9 9 9 12 0 12 -6 0
-10 12 -7 29 2 22 0 28 -11 24 -7 -3 -17 2 -20 12 -4 9 -13 14 -20 11 -8 -3
-13 -2 -13 2 4 21 -2 42 -12 42 -5 0 -8 -4 -4 -9 3 -5 1 -12 -5 -16 -5 -3 -10
1 -10 10 0 9 -5 13 -11 10 -6 -4 -8 -13 -5 -21 4 -11 -1 -13 -20 -10 -35 7
-58 -14 -35 -31 14 -12 14 -12 -4 -7 -17 4 -16 3 3 -8 12 -8 19 -17 16 -21 -4
-4 -3 -7 3 -7 17 0 10 -33 -11 -53 -17 -15 -15 -21 6 -18 3 0 5 -7 3 -17 -2
-9 -4 -20 -4 -24 -1 -4 -9 -4 -18 -1 -17 6 -17 6 0 -11 15 -15 15 -21 5 -34
-11 -13 -10 -15 5 -9 15 5 16 4 7 -12 -5 -11 -15 -22 -22 -24 -8 -3 -6 -6 5
-6 9 -1 18 -9 19 -18 0 -10 2 -24 2 -32 1 -8 7 -16 15 -19 9 -3 11 0 6 8 -5 9
-4 11 3 6 9 -5 8 -12 -1 -26 -11 -19 -12 -19 -20 3 -5 12 -11 17 -14 10 -6
-18 16 -55 29 -47 7 4 8 3 4 -4 -4 -7 -15 -12 -24 -12 -12 0 -13 -3 -5 -11 6
-6 9 -19 5 -28 -5 -14 -4 -14 11 -2 15 12 17 12 11 -4 -5 -13 -4 -16 4 -11 7
4 5 -7 -5 -28 -9 -20 -21 -36 -26 -36 -6 0 -6 -5 0 -12 13 -16 24 -48 17 -48
-2 0 -9 10 -14 23 -9 22 -9 22 -10 -3 -1 -14 -3 -33 -5 -43 -2 -9 2 -17 8 -17
6 0 2 -6 -8 -14 -22 -16 -13 -51 10 -42 8 3 15 1 15 -4 0 -6 -5 -10 -11 -10
-8 0 -8 -5 1 -15 7 -8 16 -12 21 -9 5 3 6 -5 1 -18 -9 -30 -8 -59 3 -78 8 -13
7 -13 -9 -1 -15 12 -19 12 -34 -4 -13 -14 -14 -17 -2 -13 10 4 15 -2 16 -18 1
-16 -4 -24 -15 -24 -14 -1 -14 -2 2 -11 9 -5 17 -21 17 -34 0 -13 8 -31 18
-41 16 -17 16 -17 -5 -12 -19 5 -21 3 -14 -11 6 -10 5 -24 -1 -35 -6 -10 -7
-16 -2 -13 5 2 17 -10 26 -29 19 -36 7 -48 -14 -14 -14 22 -33 26 -43 10 -3
-6 1 -7 9 -4 13 5 16 -3 16 -45 0 -48 2 -51 25 -51 19 0 25 5 25 21 0 11 4 18
9 15 4 -3 6 -17 3 -31 -4 -23 -9 -26 -41 -23 -35 3 -36 5 -41 48 l-5 45 -12
-39 c-6 -21 -9 -35 -6 -32 4 3 11 -4 17 -17 7 -12 17 -22 23 -22 22 0 34 -22
27 -49 -6 -25 -9 -26 -78 -26 -66 1 -106 14 -106 35 0 5 9 0 20 -10 19 -17 20
-17 21 1 1 10 0 25 -1 33 -1 8 3 17 9 21 7 4 0 15 -18 28 l-29 21 -22 -24
c-16 -17 -18 -25 -9 -30 8 -5 10 -4 5 3 -4 7 -2 12 3 12 14 0 14 -17 1 -25 -6
-3 -10 -13 -10 -21 0 -8 4 -13 9 -10 5 3 11 -3 14 -14 5 -19 0 -20 -153 -20
-149 0 -158 1 -163 20 -4 15 9 30 59 67 l64 47 -27 12 -28 11 28 13 c31 15 36
40 7 40 -11 0 -20 5 -20 10 0 6 7 10 16 10 8 0 12 5 9 10 -4 6 -11 7 -17 4 -7
-4 -6 0 1 13 8 17 6 22 -14 31 -13 6 -25 8 -28 4 -2 -4 -3 -2 -1 4 1 6 -3 17
-9 23 -18 18 1 13 23 -6 20 -17 31 -20 29 -7 0 4 5 10 12 15 10 6 10 11 1 21
-9 11 -8 19 4 36 13 19 13 21 0 16 -17 -6 -31 -40 -28 -64 2 -9 -6 -4 -17 10
-11 14 -21 19 -21 13 0 -7 -5 -13 -11 -13 -8 0 -8 4 -1 13 6 7 7 18 3 25 -6
10 -10 10 -20 -1 -6 -8 -11 -19 -10 -23 4 -25 -2 -45 -13 -38 -6 4 -8 3 -5 -4
4 -5 17 -8 29 -4 14 3 19 2 14 -7 -4 -6 -11 -9 -16 -6 -5 3 -14 -4 -20 -15 -8
-15 -8 -20 1 -20 8 0 8 -4 -1 -15 -7 -8 -18 -15 -24 -14 -7 0 -6 2 2 6 6 2 12
9 12 14 0 6 -4 7 -10 4 -6 -3 -10 -1 -10 4 0 6 -5 11 -12 11 -9 0 -9 -3 0 -12
8 -8 8 -17 1 -30 -9 -17 -7 -18 18 -12 15 4 33 14 40 23 11 15 12 15 13 0 0
-9 10 -20 23 -24 l22 -8 -22 -4 c-13 -2 -23 -8 -23 -13 0 -4 10 -11 23 -15
l22 -8 -23 -4 -24 -5 23 -24 c12 -13 19 -27 15 -31 -4 -5 -14 1 -22 11 -14 19
-14 19 -14 -1 0 -12 -4 -25 -10 -28 -6 -4 -10 5 -10 21 0 21 -3 24 -14 15 -8
-7 -12 -19 -11 -29 2 -9 6 -34 9 -55 l5 -37 -229 0 c-285 0 -286 1 -78 82 52
20 84 38 80 44 -9 12 -55 16 -47 4 3 -5 1 -11 -4 -14 -5 -3 -11 6 -14 20 -4
21 -1 25 14 21 12 -3 17 -1 12 5 -3 7 -1 8 6 4 6 -4 9 -12 6 -17 -4 -5 -4 -9
-2 -9 3 0 17 23 31 50 14 28 22 50 17 50 -5 0 -11 -6 -14 -12 -2 -7 -7 -10
-11 -7 -4 4 0 14 9 23 12 12 13 16 3 16 -9 1 -7 5 5 14 20 15 22 27 5 24 -7
-2 -14 8 -15 22 -2 22 -2 23 6 5 5 -11 10 -15 10 -8 1 7 10 17 20 23 15 7 23
6 35 -6 9 -8 21 -12 28 -8 10 6 10 5 0 -8 -7 -8 -10 -23 -6 -32 3 -9 1 -16 -5
-16 -6 0 -11 5 -11 11 0 5 -5 7 -10 4 -13 -8 -13 8 0 21 16 16 -11 36 -30 24
-12 -8 -10 -10 8 -10 13 0 20 -4 17 -10 -4 -6 -10 -8 -15 -5 -4 3 -6 -4 -3
-16 3 -12 0 -25 -7 -29 -18 -11 -3 -30 23 -30 20 1 20 2 4 11 -17 10 -15 29 4
29 6 0 7 -4 4 -10 -3 -5 0 -7 9 -4 11 4 13 0 9 -15 -3 -13 -1 -21 7 -21 7 0
10 7 6 15 -3 8 0 15 7 15 8 0 6 4 -3 10 -12 8 -9 10 14 10 26 0 28 -3 24 -30
-3 -17 -1 -30 4 -30 4 0 8 9 8 21 0 12 4 17 11 14 13 -9 8 27 -6 37 -5 4 -1 8
10 8 18 1 19 1 2 11 -9 5 -22 7 -27 4 -6 -3 -10 1 -10 9 0 20 17 29 24 14 4
-10 8 -10 11 -2 3 7 16 10 28 7 18 -4 19 -3 7 6 -8 6 -23 8 -34 5 -12 -4 -16
-2 -12 5 10 16 -3 14 -20 -3 -17 -17 -18 -38 -3 -53 7 -7 4 -10 -10 -9 -23 1
-24 7 -10 44 14 37 33 51 52 40 13 -7 17 -5 17 7 0 9 4 14 10 10 5 -3 7 -13 4
-23 -5 -14 -3 -14 10 2 9 11 16 16 16 12 0 -4 7 0 16 8 8 9 19 14 24 11 5 -3
10 0 12 6 2 7 10 4 18 -7 14 -16 13 -17 -2 -11 -10 3 -18 2 -18 -2 0 -5 6 -11
14 -14 15 -6 30 19 20 34 -8 13 40 29 86 29 35 0 40 -3 50 -34 20 -62 17 -156
-6 -156 -8 0 -12 -5 -9 -10 4 -7 13 -7 26 0 15 9 19 22 19 66 0 50 -28 189
-49 239 -26 64 -29 84 -14 97 8 6 13 22 10 35 -2 14 1 23 8 23 7 0 11 10 10
24 -2 18 1 23 11 19 8 -3 15 0 15 6 3 20 4 26 12 39 5 7 13 9 19 6 7 -4 8 -2
4 4 -4 6 -14 9 -24 6 -14 -5 -14 -4 1 6 20 13 42 1 42 -23 0 -7 8 -11 18 -9
17 3 17 2 0 -25 -10 -15 -12 -24 -5 -20 6 5 12 4 12 -2 0 -5 -5 -13 -10 -16
-8 -5 -7 -11 1 -21 6 -8 7 -14 2 -14 -5 0 -7 -16 -5 -35 2 -19 9 -35 15 -35 6
0 7 -3 4 -7 -4 -3 -1 -13 6 -21 8 -11 9 -14 0 -9 -18 11 -33 -23 -22 -51 5
-13 7 -34 4 -48 -15 -74 -16 -79 -5 -64 9 13 10 12 8 -5 -1 -11 1 -26 5 -32 6
-9 3 -11 -10 -6 -16 6 -16 5 -4 -10 11 -14 11 -17 0 -17 -9 0 -10 -3 -3 -10 7
-7 8 -29 4 -55 -5 -34 -4 -45 7 -45 7 0 13 8 13 18 1 16 1 16 14 0 7 -10 19
-18 27 -18 11 0 11 2 2 8 -7 4 -11 18 -8 30 2 12 0 22 -6 22 -10 0 -9 59 2 66
4 2 5 13 2 24 -3 11 -9 17 -14 14 -5 -3 -6 1 -3 9 3 8 1 18 -5 22 -15 8 -14
26 1 23 14 -4 18 52 4 70 -7 11 -5 13 8 10 12 -2 20 4 21 14 3 14 0 16 -15 8
-16 -9 -17 -7 -7 14 7 14 15 23 18 20 3 -2 5 7 4 19 0 12 2 30 7 39 6 13 5 16
-7 12 -18 -7 -20 12 -3 20 7 4 3 4 -9 2 -12 -2 -24 2 -27 10 -3 8 0 11 8 8 8
-3 17 0 22 7 4 8 3 10 -4 5 -8 -5 -12 1 -12 14 0 13 4 19 11 14 7 -4 7 1 -1
16 -8 15 -8 20 -1 16 13 -8 16 8 12 76 -1 20 -2 21 -21 3 -11 -10 -20 -13 -20
-7 0 6 5 12 11 14 6 2 12 15 12 30 1 14 5 24 10 21 4 -2 7 1 7 6 0 6 -5 11
-11 11 -11 0 -9 16 7 54 6 16 4 18 -11 12 -18 -7 -18 -6 0 14 14 15 15 19 4
15 -9 -3 -16 0 -16 7 0 7 -4 22 -8 33 -5 13 -4 16 2 7 7 -9 12 -6 21 13 7 16
8 25 1 25 -6 0 -6 6 0 19 6 10 8 21 4 24 -3 4 0 14 8 23 11 14 11 18 -3 28
-16 12 -16 14 0 29 10 11 12 17 4 17 -7 0 -12 7 -12 16 0 8 -4 12 -10 9 -10
-6 -11 -5 -15 33 -2 16 2 21 11 18 7 -3 16 0 20 6 4 7 3 8 -4 4 -7 -4 -12 -2
-12 3 0 6 7 11 15 11 7 0 18 8 24 18 12 21 23 19 32 -5 7 -16 8 -16 8 -1 1 9
-6 24 -15 32 -9 9 -13 24 -9 35 4 13 0 23 -12 31 -13 8 -14 13 -5 16 16 7 16
57 0 52 -6 -2 -13 -11 -16 -19 -3 -11 -2 -11 7 1 9 13 11 13 11 -1 0 -9 -7
-22 -15 -29 -12 -10 -15 -10 -15 4 0 9 -4 16 -9 16 -4 0 -6 -11 -3 -25 2 -14
8 -23 12 -20 4 3 11 -2 14 -10 4 -13 2 -14 -14 -5 -19 10 -24 6 -21 -12 2 -12
-6 -9 -24 9 -16 15 -17 15 -13 -5 2 -12 -5 -28 -17 -37 -11 -9 -15 -14 -9 -11
7 3 14 -1 17 -9 4 -9 1 -12 -7 -9 -8 3 -16 -4 -19 -15 -6 -24 2 -27 23 -9 8 7
-1 -4 -20 -25 -25 -28 -41 -37 -57 -34 -12 2 -20 0 -17 -4 3 -5 0 -9 -6 -9 -6
0 -9 -4 -5 -9 3 -5 1 -13 -5 -16 -7 -5 -8 -11 -1 -19 7 -8 1 -15 -21 -25 -22
-10 -27 -16 -17 -22 9 -5 10 -9 2 -9 -6 0 -16 -14 -22 -31 -6 -17 -15 -28 -21
-24 -9 6 -14 -10 -13 -42 0 -7 -4 -11 -11 -10 -6 1 -11 -8 -10 -19 1 -27 -29
-25 -35 2 -2 10 -13 51 -26 89 -13 39 -33 118 -45 178 -13 59 -26 107 -30 107
-4 0 -3 -19 2 -42 6 -24 11 -58 12 -75 0 -18 4 -33 7 -33 6 0 15 -42 24 -105
0 -5 6 -23 13 -38 7 -15 14 -41 17 -57 3 -16 9 -40 14 -53 6 -14 7 -28 4 -31
-4 -3 -2 -6 4 -6 6 0 13 -14 17 -31 3 -17 12 -45 21 -62 24 -53 44 -115 38
-121 -3 -3 0 -12 7 -20 6 -9 16 -30 20 -48 5 -18 22 -71 39 -118 17 -47 31
-90 31 -97 0 -20 -70 -16 -87 4 -8 10 -12 12 -8 6 3 -7 0 -13 -7 -13 -8 0 -14
8 -14 19 0 13 5 17 15 13 14 -5 14 -4 1 10 -13 15 -17 15 -26 2 -6 -8 -19 -14
-28 -14 -9 0 -16 -6 -16 -14 0 -8 -5 -18 -11 -21 -6 -5 -9 6 -7 30 2 29 -2 40
-19 52 -29 19 -30 10 -2 -16 17 -16 19 -23 9 -40 -6 -12 -10 -29 -8 -38 2 -9
-2 -18 -8 -20 -7 -2 -11 10 -9 35 2 35 0 40 -21 40 -27 0 -32 -13 -9 -22 18
-7 20 -46 3 -47 -7 0 -21 -2 -30 -4 -10 -2 -18 1 -18 5 0 5 10 10 22 12 12 2
23 10 25 18 4 12 3 12 -5 2 -7 -11 -11 -7 -16 14 -4 16 -3 30 2 32 13 4 -11
53 -38 77 -18 16 -18 19 -3 30 15 11 14 14 -7 36 l-24 24 17 -27 c14 -23 15
-26 2 -22 -10 4 -15 0 -15 -14 0 -11 7 -22 15 -26 9 -3 12 -12 9 -23 -5 -15
-4 -16 6 -3 9 12 10 11 5 -8 -4 -13 -1 -29 5 -37 7 -8 9 -15 6 -15 -4 0 -1
-10 5 -22 11 -21 11 -22 -4 -9 -29 24 -61 -9 -34 -35 3 -4 4 4 2 16 -3 18 -2
21 7 12 19 -19 -19 -81 -49 -82 -7 0 -13 7 -13 16 0 13 3 14 13 5 10 -8 14 -7
14 4 0 8 -5 15 -10 15 -5 0 -4 7 3 16 11 13 9 19 -11 37 -13 12 -19 16 -13 9
16 -19 4 -71 -18 -83 -11 -6 -17 -16 -15 -23 4 -9 -4 -13 -21 -12 -21 1 -28 7
-30 26 -2 23 -1 24 11 7 19 -23 30 -22 22 2 -5 15 -2 18 14 14 13 -3 20 1 23
14 5 20 -18 73 -31 73 -15 0 -22 33 -9 41 8 5 5 8 -10 6 -25 -1 -27 -8 -10
-25 9 -9 8 -12 -6 -12 -9 0 -15 -4 -11 -10 3 -5 11 -7 18 -5 19 7 38 -10 31
-28 -3 -9 -16 -18 -28 -18 -16 -1 -17 -2 -3 -6 18 -5 22 -15 10 -26 -3 -4 -13
-1 -22 5 -9 7 -13 9 -9 4 4 -5 1 -15 -7 -22 -16 -16 -29 -19 -20 -4 3 6 0 10
-7 11 -7 0 -23 2 -35 3 -14 2 -19 -2 -16 -11 3 -8 13 -11 23 -8 13 4 16 0 15
-17 -1 -13 -9 -24 -18 -26 -12 -2 -15 1 -11 12 5 12 2 15 -10 10 -9 -3 -13
-11 -9 -18 4 -6 0 -6 -9 2 -12 9 -18 10 -23 2 -4 -6 1 -17 11 -24 23 -18 12
-31 -39 -49 -32 -11 -49 -12 -62 -4 -14 7 -20 7 -23 -1 -2 -7 -9 -9 -15 -6 -8
5 -8 2 0 -7 16 -17 17 -32 1 -27 -7 3 -13 18 -13 35 0 18 3 29 9 26 5 -4 7 1
3 10 -3 9 -1 18 6 20 9 3 8 8 -3 21 -12 16 -11 20 10 38 14 11 18 16 10 12 -8
-4 -24 -14 -34 -23 -18 -15 -18 -15 -6 8 7 15 8 21 1 17 -6 -4 -11 -2 -11 4 0
7 8 9 19 5 12 -3 21 0 24 9 5 12 0 14 -25 9 -22 -4 -29 -3 -24 6 4 6 11 9 16
6 5 -3 12 -1 15 5 4 6 2 9 -3 8 -16 -5 -16 4 -3 45 7 20 17 35 21 32 5 -3 17
6 26 21 15 22 15 27 3 35 -8 5 -11 9 -6 10 25 5 33 4 44 -3 8 -7 10 -3 6 11
-6 25 3 27 23 6 11 -10 21 -12 38 -5 18 7 26 5 30 -6 3 -8 11 -14 18 -14 9 0
9 3 1 11 -6 6 -9 18 -6 27 4 10 2 13 -5 8 -8 -4 -12 0 -13 11 0 15 -2 14 -11
-5 -12 -23 -35 -25 -30 -2 2 11 0 11 -12 1 -9 -7 -16 -8 -20 -2 -4 5 -2 12 4
16 5 3 10 13 10 21 0 8 -4 13 -9 10 -13 -9 0 37 15 49 6 6 15 23 18 39 5 21
10 26 15 17 6 -9 11 -10 15 -3 3 6 2 13 -4 17 -12 7 -4 25 11 25 6 0 7 -5 3
-12 -4 -6 -3 -8 4 -4 5 3 12 1 14 -6 4 -12 10 42 10 84 -1 12 4 15 16 11 15
-6 15 -5 2 11 -8 11 -16 14 -18 7 -6 -18 -28 -12 -47 13 -16 21 -20 22 -33 10
-11 -12 -12 -17 -1 -30 7 -8 19 -12 28 -9 8 3 12 3 8 -1 -4 -4 -2 -12 3 -19 7
-8 2 -16 -15 -25 -19 -10 -22 -16 -14 -27 9 -9 7 -14 -5 -19 -9 -3 -13 -10
-10 -15 3 -5 -3 -6 -12 -2 -12 4 -15 3 -10 -5 4 -7 3 -12 -2 -12 -15 0 -24 33
-11 40 6 4 21 6 33 4 11 -2 15 -2 9 2 -18 8 -16 33 2 40 21 8 19 21 -5 29 -11
3 -20 14 -20 22 0 9 -3 13 -6 10 -4 -3 -15 -2 -25 4 -12 6 -19 6 -19 0 0 -5 9
-12 19 -16 12 -4 18 -12 14 -20 -3 -8 -8 -13 -12 -11 -4 3 -6 -7 -6 -22 2 -36
-13 -65 -30 -58 -9 3 -12 0 -8 -10 3 -9 0 -13 -8 -11 -8 2 -11 2 -6 0 4 -3 4
-10 0 -16 -3 -7 3 -4 14 5 25 23 42 23 38 1 -1 -10 2 -26 7 -35 7 -15 4 -17
-21 -14 -21 2 -36 -3 -48 -18 -15 -17 -15 -18 -1 -8 14 11 16 11 11 -6 -2 -11
0 -23 6 -26 19 -12 12 -28 -9 -21 -11 3 -20 2 -20 -3 0 -6 5 -12 11 -14 5 -2
7 -11 4 -20 -8 -20 -45 -20 -45 0 0 9 7 11 23 7 17 -5 19 -4 7 4 -17 12 -20
42 -5 54 6 5 3 7 -6 4 -12 -4 -16 2 -17 24 0 16 3 29 7 29 4 0 6 14 3 30 -4
25 -7 28 -19 19 -11 -10 -11 -14 -1 -20 9 -6 9 -9 1 -9 -12 0 -13 -57 0 -77 4
-6 2 -15 -4 -18 -6 -5 -8 -18 -3 -34 4 -14 6 -37 5 -50 0 -13 5 -31 11 -39 11
-13 11 -14 -1 -8 -11 7 -13 -2 -7 -55 3 -35 8 -104 10 -154 2 -49 7 -141 11
-203 l8 -112 -991 0 -990 0 -7 58 c-9 78 -16 88 -45 62 -13 -11 -25 -18 -27
-16 -6 6 9 36 18 36 5 0 9 7 9 15 0 8 5 15 11 15 8 0 8 4 0 14 -9 11 -9 16 0
21 8 6 8 10 -2 16 -8 4 -14 14 -15 21 -4 53 -1 51 -37 28 l-32 -22 25 22 c14
13 24 27 22 32 -1 5 6 4 16 -1 13 -7 22 -7 30 1 9 9 9 4 3 -19 -5 -18 -7 -34
-3 -37 3 -3 -1 -6 -8 -6 -10 0 -10 -3 2 -12 9 -7 19 -26 21 -43 2 -16 4 40 3
125 -1 139 -3 155 -18 158 -12 2 -21 -6 -28 -24 -10 -26 -11 -26 -28 -6 -16
18 -20 19 -44 6 -32 -17 -46 -53 -27 -65 20 -12 31 -11 23 3 -4 6 -3 8 3 5 5
-3 8 -26 7 -51 -2 -26 2 -46 7 -46 5 0 9 6 8 13 -3 24 1 38 9 33 5 -3 9 1 9 9
0 11 -3 12 -14 3 -12 -10 -12 -7 -2 15 7 15 15 24 20 22 4 -3 10 3 13 12 3 10
16 18 29 18 19 0 22 -5 22 -32 0 -18 -5 -37 -12 -44 -6 -6 -9 -19 -5 -28 5
-14 3 -14 -11 -3 -12 10 -21 11 -34 3 -10 -6 -14 -11 -9 -11 6 0 1 -6 -9 -14
-26 -19 -35 -12 -35 29 0 19 -6 35 -14 38 -11 4 -13 1 -9 -10 4 -11 2 -14 -5
-9 -17 10 -15 0 3 -18 14 -13 13 -16 -4 -25 -14 -8 -31 -7 -62 4 -62 22 -58
12 8 -21 42 -21 57 -34 55 -47 -2 -9 1 -17 5 -16 24 4 35 -2 29 -17 -5 -14 -4
-15 9 -4 15 12 21 4 16 -23 -1 -5 2 -6 7 -3 13 8 35 -11 28 -23 -4 -6 -14 -11
-23 -11 -12 0 -13 -3 -4 -14 13 -16 -2 -32 -19 -21 -5 3 -10 2 -10 -3 0 -5
-12 -10 -26 -10 -14 0 -31 -5 -37 -11 -8 -8 -5 -11 12 -11 12 0 20 -4 16 -10
-3 -5 -13 -6 -22 -3 -12 5 -14 3 -8 -6 6 -10 2 -11 -16 -6 -55 15 -187 71
-231 97 -27 15 -48 25 -48 21 0 -3 -8 1 -18 9 -9 9 -50 33 -90 54 -85 44 -101
60 -103 99 -4 49 33 175 51 175 8 0 42 -18 74 -40 33 -22 70 -43 83 -46 13 -4
23 -10 23 -15 0 -5 9 -9 20 -9 11 0 20 -4 20 -9 0 -5 8 -11 18 -14 9 -2 41
-14 70 -26 28 -11 52 -17 52 -13 -1 8 -134 72 -150 72 -5 0 -10 5 -10 12 0 6
-3 8 -6 5 -6 -6 -91 38 -104 53 -11 12 -65 44 -72 42 -22 -6 -15 80 11 123 3
6 6 15 8 20 1 6 13 42 27 80 14 39 27 81 30 95 3 14 19 65 35 113 17 48 33
105 37 125 4 20 12 43 18 51 6 8 9 15 7 15 -2 1 3 26 11 56 9 30 23 89 32 130
21 96 35 149 49 180 6 14 12 33 14 43 4 23 39 128 57 169 8 18 20 47 27 63 7
17 13 32 14 35 3 16 59 118 74 135 9 11 26 34 36 50 31 51 201 226 210 217 3
-3 5 -1 5 4 0 5 14 18 31 28 17 10 28 20 26 22 -6 7 -57 -18 -57 -27 0 -4 -8
-10 -17 -13 -10 -3 -29 -16 -43 -29 -35 -34 -141 -154 -167 -191 -12 -17 -26
-36 -31 -42 -5 -5 -22 -32 -37 -60 -15 -27 -30 -53 -34 -59 -4 -5 -14 -26 -21
-45 -7 -19 -22 -55 -33 -80 -11 -24 -20 -54 -21 -67 0 -13 -3 -23 -6 -23 -7 0
-31 -64 -35 -93 -2 -12 -14 -60 -28 -107 -14 -47 -31 -113 -38 -148 -6 -34
-16 -65 -20 -68 -5 -3 -9 -16 -9 -30 0 -14 -5 -34 -11 -45 -5 -11 -12 -32 -14
-47 -3 -15 -14 -56 -26 -92 -23 -72 -25 -80 -29 -95 -1 -5 -9 -26 -17 -45 -8
-19 -19 -48 -24 -65 -13 -48 -40 -128 -54 -160 -8 -16 -16 -43 -20 -60 -4 -16
-13 -47 -21 -68 -29 -77 -41 -204 -22 -227 20 -23 77 -62 141 -95 31 -16 57
-32 57 -36 0 -4 14 -10 30 -14 17 -4 30 -11 30 -16 0 -6 4 -8 8 -5 18 11 34
-14 35 -55 l1 -44 -337 -3 c-317 -2 -337 -1 -334 15 1 10 6 23 10 30 4 6 3 21
-1 34 -9 25 -4 71 7 64 4 -2 8 2 8 10 0 8 -5 11 -10 8 -6 -4 -8 6 -4 27 4 20
2 38 -4 47 -10 11 -8 12 7 6 16 -6 17 -5 6 9 -9 11 -10 18 -2 23 14 9 8 38
-10 47 -11 5 -8 7 8 7 l23 1 -21 27 -21 27 23 14 c13 7 15 11 6 8 -9 -3 -18 0
-20 6 -3 7 -14 5 -31 -7 -20 -13 -27 -14 -27 -4 0 10 -3 10 -12 1 -7 -7 -19
-12 -28 -12 -9 0 -21 -12 -28 -28 -7 -17 -9 -19 -6 -5 4 20 1 22 -25 20 -17
-1 -31 -6 -31 -11 0 -5 -3 -6 -7 -3 -3 4 -13 1 -21 -6 -13 -10 -14 -9 -7 3 5
10 1 9 -13 -3 -21 -19 -48 -15 -36 5 4 6 -1 6 -14 -1 -12 -6 -24 -16 -27 -21
-3 -6 -14 -10 -23 -10 -15 0 -15 2 -2 10 13 8 12 10 -2 10 -10 0 -18 -4 -18
-9 0 -5 -7 -11 -14 -14 -10 -4 -13 -1 -9 9 6 17 -22 9 -50 -14 -9 -8 -17 -10
-17 -5 0 14 -71 7 -80 -7 -5 -8 -9 -7 -13 4 -4 9 -12 14 -19 11 -33 -11 -88
-14 -88 -5 0 6 -5 10 -11 10 -5 0 -8 -4 -4 -9 3 -5 0 -13 -7 -17 -7 -4 -10 -4
-6 1 9 9 -9 35 -23 35 -5 0 -9 -5 -9 -11 0 -5 4 -7 10 -4 5 3 10 1 10 -5 0 -7
-7 -9 -16 -6 -9 3 -18 6 -20 6 -3 0 -2 5 1 10 3 6 1 10 -4 10 -6 0 -11 -4 -11
-9 0 -5 -11 -8 -25 -7 -14 0 -25 4 -25 8 0 3 -9 4 -20 1 -11 -3 -26 0 -33 6
-8 6 -17 8 -20 4 -4 -3 -7 1 -7 10 0 20 -11 22 -28 5 -9 -9 -13 -7 -18 6 -5
13 -9 14 -21 5 -11 -10 -13 -10 -11 1 2 7 -2 14 -9 17 -8 3 -10 -4 -7 -22 3
-17 -1 -27 -11 -31 -14 -6 -14 -8 1 -25 12 -13 13 -19 4 -19 -7 0 -10 -7 -6
-15 3 -8 1 -15 -4 -15 -6 0 -10 5 -10 12 0 6 -2 9 -5 7 -2 -3 -1 -19 4 -36 6
-21 5 -35 -2 -43 -9 -9 -7 -16 9 -29 21 -17 21 -18 3 -29 -13 -8 -19 -24 -19
-46 0 -35 -14 -55 -23 -36 -3 6 -4 5 -3 -2 2 -7 9 -12 16 -10 8 2 9 -5 5 -19
-5 -14 -3 -19 3 -15 6 3 14 2 17 -4 5 -8 -14 -10 -59 -9 -59 2 -64 4 -56 20
13 24 12 32 -2 23 -8 -5 -9 0 -6 14 7 25 -7 30 -16 7 -7 -19 -26 -19 -26 0 0
8 5 15 11 15 6 0 9 7 5 15 -3 8 0 15 6 15 7 0 6 5 -2 15 -16 19 -3 40 16 24
20 -16 47 7 38 34 -3 11 -2 17 3 14 5 -4 10 0 10 8 0 18 -14 19 -31 2 -15 -14
-9 -40 6 -31 6 4 9 1 6 -6 -5 -15 -30 -27 -27 -13 4 20 -2 34 -12 28 -14 -9
-49 34 -48 59 1 18 2 18 8 -4 4 -14 14 -24 23 -24 11 1 15 -4 11 -15 -3 -9 10
0 29 19 19 19 33 37 31 39 -1 2 2 10 9 18 8 11 7 12 -6 7 -9 -3 -16 -11 -17
-18 0 -6 -5 0 -10 13 -7 18 -6 27 3 33 10 6 10 8 1 8 -7 0 -13 7 -13 16 0 8 4
13 9 9 5 -3 12 -1 16 5 3 5 1 10 -4 10 -6 0 -11 6 -11 14 0 11 -7 13 -29 6
-17 -4 -31 -4 -33 0 -2 5 -12 2 -22 -6 -17 -12 -18 -14 -3 -14 9 0 17 -4 17
-10 0 -6 -15 -8 -35 -4 -20 3 -35 1 -35 -4 0 -6 -9 -8 -20 -5 -13 4 -26 -1
-35 -13 -14 -19 -14 -19 -15 0 0 19 0 19 -13 1 -8 -10 -19 -15 -25 -11 -8 5
-10 2 -6 -8 3 -9 11 -16 17 -16 6 0 8 -3 5 -6 -4 -3 -18 2 -32 11 -24 16 -26
16 -26 1 0 -9 6 -16 14 -16 8 0 17 -7 20 -16 5 -14 4 -15 -9 -4 -12 10 -15 10
-16 -1 0 -8 -6 1 -13 20 -9 27 -14 31 -19 18 -3 -9 -2 -19 3 -22 6 -4 10 -11
10 -17 0 -6 -9 0 -21 13 -11 13 -25 25 -30 25 -5 1 -15 2 -21 3 -10 1 -10 3 1
10 9 6 10 11 2 15 -6 4 -14 0 -17 -8 -3 -9 -10 -16 -15 -16 -6 0 -6 7 0 18 6
11 6 24 0 33 -5 7 -9 10 -10 4 -3 -34 -11 -60 -22 -68 -8 -6 -6 -7 6 -3 15 5
16 2 7 -14 -17 -31 -13 -60 7 -53 14 5 12 -1 -7 -22 -19 -21 -21 -27 -8 -22
12 4 18 1 18 -8 0 -8 -5 -14 -11 -12 -6 1 -14 -4 -17 -12 -3 -9 0 -12 10 -9 9
4 14 -2 16 -21 1 -18 -1 -22 -7 -12 -11 17 -18 -5 -20 -66 l-2 -43 3201 0
3200 0 0 3200 0 3200 -3202 -2 c-1954 -2 -2490 -4 -1374 -5z m3589 -5286 c-4
-6 0 -8 8 -5 10 4 14 -3 15 -23 1 -16 -3 -29 -7 -29 -5 0 -9 -7 -9 -15 0 -8
-5 -15 -10 -15 -7 0 -7 -6 0 -20 8 -15 6 -21 -9 -29 -10 -6 -21 -8 -24 -5 -3
3 -3 -3 0 -15 3 -12 0 -28 -7 -36 -7 -8 -9 -15 -4 -15 5 0 2 -5 -6 -10 -11 -7
-11 -10 -2 -10 10 0 10 -3 0 -14 -7 -8 -17 -12 -21 -9 -4 2 -6 -7 -3 -21 3
-15 1 -24 -5 -21 -8 5 -14 -15 -10 -37 0 -5 -3 -8 -8 -8 -5 0 -7 -10 -4 -22 4
-19 3 -20 -6 -8 -11 16 -15 8 -11 -25 l1 -20 -14 20 c-12 17 -28 68 -29 92 0
5 -5 14 -10 21 -9 10 -6 14 10 19 13 3 19 10 15 17 -14 22 -12 38 5 31 9 -3
13 -3 9 1 -4 4 -1 14 6 23 22 27 37 70 27 76 -12 7 8 44 33 63 15 12 16 16 5
30 -7 9 -8 13 -2 9 6 -3 16 2 23 12 14 19 56 17 44 -2z m976 -939 c0 -90 -3
-157 -6 -150 -2 6 -9 12 -14 12 -6 0 -7 -4 -4 -10 4 -6 -17 -10 -54 -10 -56 0
-61 2 -61 21 0 12 8 28 18 35 16 12 15 13 -5 14 -13 0 -23 5 -23 10 0 6 10 10
23 11 12 0 16 3 10 6 -7 2 -13 11 -13 19 0 9 4 13 9 10 4 -3 13 6 20 20 14 31
14 37 -1 28 -7 -4 -8 -3 -4 4 4 7 14 12 22 12 8 0 13 3 13 8 -4 23 2 42 12 36
8 -4 9 0 4 15 -3 11 -1 29 5 38 9 15 10 14 5 -7 l-6 -25 20 25 c11 14 21 28
21 33 0 4 2 7 5 7 3 0 5 -73 4 -162z m-1639 78 c-13 -13 -13 -39 0 -31 17 10
52 -5 46 -21 -5 -12 5 -18 25 -16 4 1 6 -13 5 -30 -5 -74 -144 -101 -201 -38
-10 11 -22 17 -26 14 -5 -3 -9 4 -9 15 0 11 9 25 21 31 11 7 18 14 15 17 -3 3
5 14 17 24 12 10 16 18 10 19 -7 0 -13 -5 -13 -11 0 -5 -5 -7 -11 -4 -15 10
-4 18 33 22 70 8 78 10 85 16 3 4 1 7 -6 7 -7 0 -9 5 -5 11 4 8 9 7 15 -2 4
-8 4 -18 -1 -23z m-4650 -117 c0 -5 -4 -7 -10 -4 -6 3 -7 -1 -4 -10 5 -13 9
-13 22 -3 12 10 14 10 8 1 -4 -7 -3 -13 2 -13 6 0 8 -10 5 -22 -3 -17 -2 -19
5 -10 7 11 10 9 15 -7 3 -12 10 -21 16 -21 15 0 14 23 -1 38 -7 7 -8 12 -2 12
5 0 2 5 -6 11 -12 9 -11 10 7 6 13 -3 26 -1 29 4 3 5 10 9 17 9 6 0 1 -7 -12
-16 -15 -11 -19 -20 -13 -26 6 -6 8 -16 6 -23 -3 -7 7 -17 25 -23 25 -9 29 -8
24 5 -5 13 -1 13 27 -2 24 -12 31 -13 27 -3 -2 7 -10 12 -16 10 -9 -2 -9 3 -1
18 14 26 30 26 23 0 -4 -13 0 -20 10 -20 15 0 32 27 28 44 -1 5 4 6 12 3 7 -3
14 1 14 8 0 7 -8 10 -18 8 -9 -3 -19 -1 -22 4 -3 4 9 9 27 9 29 0 32 -2 28
-20 -3 -12 -8 -23 -12 -26 -12 -8 8 -50 24 -50 7 0 13 6 12 13 0 6 2 13 7 15
4 1 7 0 7 -3 0 -3 0 -12 0 -20 0 -12 -18 -15 -105 -15 -75 0 -105 3 -105 12 0
9 -3 9 -12 0 -17 -17 -68 -15 -68 2 0 8 6 17 13 19 7 4 6 6 -4 6 -9 1 -19 10
-22 21 -3 14 -14 20 -31 20 -14 0 -26 5 -26 10 0 6 6 9 13 8 6 -2 11 5 9 15
-2 10 3 17 13 17 8 0 15 -5 15 -11z"/>
<path d="M6003 5580 c0 -16 -8 -39 -18 -50 -16 -18 -17 -23 -5 -30 10 -7 11
-10 3 -10 -19 0 -16 -18 5 -23 16 -4 16 -5 -1 -6 -10 0 -20 6 -23 14 -4 8 -10
15 -15 15 -6 0 -5 -10 2 -21 8 -15 8 -19 0 -15 -6 4 -14 0 -17 -8 -3 -9 -10
-13 -15 -10 -14 8 -10 24 6 24 9 0 12 6 8 16 -5 15 -7 15 -15 0 -8 -14 -13
-15 -24 -5 -10 8 -14 8 -14 0 0 -6 5 -11 12 -11 9 0 9 -3 0 -12 -7 -7 -17 -13
-22 -13 -6 0 -10 -4 -10 -10 0 -5 5 -10 10 -10 6 0 10 -4 9 -9 0 -5 5 -13 13
-17 10 -7 9 -9 -4 -9 -10 0 -18 5 -18 11 0 6 -7 9 -15 5 -12 -4 -14 0 -11 19
5 27 0 30 -24 15 -10 -6 -11 -10 -2 -10 6 0 12 -7 12 -15 0 -22 -15 -18 -33 8
l-16 22 6 -22 c3 -13 3 -23 0 -23 -17 0 -37 14 -37 27 0 8 -4 11 -10 8 -9 -5
-15 16 -11 38 1 5 -2 6 -7 3 -4 -2 -13 9 -19 25 -10 25 -9 30 1 26 10 -4 12 1
8 15 -2 11 -8 15 -11 10 -3 -5 -14 -8 -24 -6 -16 2 -37 -22 -37 -44 0 -5 15
-13 33 -17 17 -4 26 -9 19 -12 -8 -3 -5 -11 10 -24 l23 -18 -23 -1 c-13 0 -21
4 -18 9 3 5 -4 11 -17 15 -19 5 -20 8 -7 17 13 9 13 10 0 6 -8 -2 -14 -14 -13
-26 2 -14 -3 -21 -15 -21 -16 -1 -16 -1 0 -11 11 -6 15 -16 11 -27 -3 -9 -3
-14 1 -10 7 6 13 27 15 53 1 6 5 3 10 -4 5 -8 6 -22 2 -30 -10 -19 -3 -43 10
-35 5 3 9 0 9 -6 0 -6 5 -8 10 -5 6 3 13 -1 16 -9 3 -9 11 -13 16 -10 6 4 5
-3 -1 -15 -7 -11 -16 -21 -22 -21 -6 0 -7 5 -4 10 3 6 0 10 -7 10 -10 0 -10 2
-1 8 8 5 2 13 -17 24 -27 15 -29 15 -27 -2 1 -10 5 -16 9 -14 4 3 5 -2 2 -10
-3 -9 -9 -14 -13 -12 -4 3 -8 -5 -8 -17 -2 -16 0 -18 6 -8 7 11 10 9 16 -8 4
-12 12 -20 18 -18 18 6 34 -15 30 -38 -3 -19 -3 -19 5 0 5 10 8 30 6 43 -2 16
2 22 11 19 7 -3 12 0 12 6 -1 32 4 48 13 42 6 -4 8 -11 5 -16 -4 -5 -1 -9 5
-9 14 0 6 55 -10 76 -8 9 -9 14 -2 14 6 0 14 -9 17 -20 4 -11 11 -17 17 -14 6
4 8 2 4 -4 -3 -6 -2 -13 4 -17 5 -3 10 -11 10 -16 0 -6 -4 -7 -10 -4 -6 3 -7
-1 -4 -10 4 -8 0 -23 -7 -32 -13 -15 -11 -16 16 -10 17 3 24 4 17 1 -10 -5
-10 -9 -1 -20 9 -12 15 -12 27 -2 13 12 14 10 2 -8 -13 -21 -14 -21 -29 -3
-14 16 -18 17 -35 4 -17 -13 -18 -15 -3 -15 9 0 17 -5 17 -11 0 -6 -9 -8 -22
-3 -31 9 -31 9 -19 32 6 12 11 29 10 39 0 14 -2 15 -6 3 -4 -8 -13 -21 -22
-28 -9 -8 -10 -11 -3 -7 6 3 12 2 12 -4 0 -5 -6 -11 -12 -13 -10 -4 -9 -8 2
-20 8 -8 21 -13 29 -10 8 3 11 0 7 -6 -3 -6 2 -12 11 -15 10 -2 3 -4 -14 -4
-22 0 -33 5 -33 15 0 8 -6 12 -14 9 -8 -3 -22 3 -31 13 -13 14 -13 19 -3 23 8
4 7 6 -4 6 -11 1 -18 -6 -18 -18 0 -11 -4 -23 -10 -26 -6 -4 -7 1 -3 11 4 12
3 15 -5 10 -7 -4 -10 -17 -6 -32 4 -16 2 -24 -7 -24 -11 0 -11 -2 1 -9 8 -6
18 -7 22 -5 4 3 8 -2 8 -10 0 -9 5 -16 11 -16 6 0 8 9 4 23 -5 17 -4 19 4 6 6
-8 7 -25 4 -38 -5 -21 -7 -21 -24 -5 -25 23 -26 -1 -1 -30 16 -20 16 -20 -2
-6 -18 14 -19 13 -14 -18 2 -17 1 -32 -4 -32 -4 0 -8 -5 -8 -11 0 -5 6 -7 13
-4 6 4 4 0 -6 -8 -17 -14 -16 -15 15 -14 18 1 36 7 40 12 5 6 8 5 8 -2 0 -7 5
-13 11 -13 7 0 4 11 -6 28 l-18 27 21 -18 c20 -18 20 -18 15 3 -5 17 -2 21 13
18 13 -2 18 2 16 15 -2 9 2 17 9 17 6 0 9 -8 6 -20 -3 -11 0 -20 5 -20 6 0 5
-6 -2 -15 -18 -21 -6 -30 13 -10 12 12 14 22 7 40 -6 16 -6 25 0 25 9 0 14
-27 11 -56 -1 -6 8 -19 19 -29 14 -13 17 -21 9 -31 -7 -8 -7 -14 1 -19 9 -6
15 16 10 40 -1 5 6 15 15 21 14 10 14 12 0 18 -9 3 -15 0 -15 -9 0 -8 -4 -15
-10 -15 -5 0 -10 9 -10 19 0 16 5 19 25 15 14 -2 25 0 25 6 0 6 6 8 13 4 9 -6
8 -3 -1 8 -8 10 -20 14 -30 10 -15 -5 -15 -4 0 12 11 10 25 15 37 11 10 -3 24
1 31 10 11 13 15 13 22 3 7 -10 8 -9 6 4 -2 9 1 17 7 17 13 -1 24 33 16 46 -8
12 -7 23 4 49 6 13 5 21 -3 24 -7 2 -9 9 -5 15 4 7 0 8 -11 4 -10 -4 -22 -7
-27 -7 -5 0 -9 -5 -9 -11 0 -5 6 -7 13 -3 8 5 8 2 -2 -9 -15 -19 -1 -23 17 -5
7 7 12 8 12 2 0 -5 -9 -15 -20 -22 -12 -7 -18 -17 -15 -22 4 -6 -2 -7 -12 -3
-14 4 -15 3 -7 -6 6 -7 21 -13 33 -14 11 -1 21 -5 21 -9 0 -5 -12 -5 -26 -2
-22 6 -25 4 -22 -17 2 -13 -1 -25 -7 -25 -5 -1 -9 2 -7 7 1 6 -6 6 -17 0 -16
-9 -18 -8 -15 12 2 12 2 16 -2 9 -3 -6 -11 -9 -17 -5 -7 4 -8 0 -4 -11 4 -10
1 -23 -6 -29 -16 -16 -71 11 -75 38 -2 11 -5 24 -5 29 -1 5 3 10 10 13 8 3 11
-4 8 -19 -5 -29 40 -67 58 -49 8 8 7 11 -6 11 -14 0 -13 4 6 23 12 13 25 22
29 20 15 -7 36 10 33 28 -2 10 0 21 6 24 5 4 9 13 9 22 0 13 -3 13 -17 2 -10
-8 -2 3 17 24 19 20 41 37 48 37 6 0 12 5 12 11 0 5 5 7 10 4 6 -3 10 -16 9
-28 0 -12 -3 -16 -6 -9 -6 15 -29 16 -39 0 -4 -7 -3 -8 5 -4 6 4 19 2 28 -5
13 -11 17 -10 28 4 6 9 15 14 18 10 4 -3 7 1 7 9 0 25 24 40 39 25 11 -10 13
-9 9 3 -3 8 -1 25 3 38 6 16 6 21 -2 16 -8 -4 -9 1 -3 17 6 22 12 65 13 112 1
10 11 21 23 26 l21 8 -22 15 c-16 12 -19 17 -9 22 7 3 3 3 -9 0 -17 -4 -23 -1
-23 11 0 9 -4 14 -10 10 -14 -8 -2 -31 23 -43 l22 -11 -21 0 c-15 -1 -26 9
-34 30 -14 32 -36 59 -49 59 -4 0 -8 -13 -8 -30z"/>
<path d="M6226 5398 c2 -3 -2 -9 -8 -12 -7 -2 5 -2 27 1 35 4 38 3 26 -11 -7
-9 -25 -16 -40 -17 l-26 -1 28 -10 c29 -10 30 -13 17 -43 -8 -18 -9 -18 -9 -2
-1 15 -4 16 -22 7 -23 -13 -19 -23 11 -25 27 -2 43 20 37 50 -3 17 0 24 7 22
6 -3 10 -10 8 -16 -1 -6 -3 -26 -5 -44 -2 -32 -2 -32 -54 -31 -29 1 -53 -3
-53 -8 0 -5 5 -6 11 -2 8 4 9 -1 4 -16 -6 -20 -4 -22 14 -17 11 3 21 0 21 -5
0 -6 -12 -8 -30 -4 -19 3 -29 2 -25 -4 3 -6 2 -10 -3 -10 -13 0 -33 -56 -24
-66 4 -4 -2 -4 -12 0 -17 6 -17 5 -5 -11 12 -14 12 -16 -1 -11 -11 4 -16 0
-17 -12 -1 -12 11 -24 33 -35 36 -17 45 -34 18 -31 -9 0 -19 -6 -21 -14 -4
-13 -3 -13 6 0 12 17 19 12 24 -18 4 -29 24 -49 24 -25 0 10 -5 21 -11 25 -6
4 -1 6 12 5 17 -1 21 -6 16 -20 -4 -13 -2 -17 5 -13 6 4 11 15 11 25 0 10 7
24 15 31 8 7 15 17 15 22 0 6 -6 5 -14 -2 -13 -10 -13 -7 -3 20 6 17 13 26 15
20 5 -13 32 -13 32 -1 0 6 -4 13 -10 16 -5 3 -10 11 -10 16 0 6 7 3 16 -6 9
-9 19 -13 23 -10 3 4 -5 15 -18 26 -13 10 -18 19 -13 19 6 0 14 -5 18 -11 4
-8 9 -7 15 2 4 8 13 15 19 15 21 3 22 4 11 17 -8 11 -5 17 13 27 16 8 22 18
19 28 -4 9 -2 13 4 9 7 -5 10 6 9 31 -2 44 -13 65 -29 56 -7 -3 -1 4 12 15 27
24 26 26 -9 35 -14 3 -19 3 -12 0 6 -3 12 -10 12 -15 0 -6 -4 -8 -8 -5 -11 7
-34 -35 -30 -53 2 -8 -3 -15 -10 -16 -7 -2 -8 -1 -3 1 8 5 6 31 -6 64 -6 15
-9 26 -11 46 -1 7 -15 11 -31 10 -16 0 -27 -4 -25 -8z"/>
<path d="M5747 5014 c7 -19 -16 -46 -35 -39 -10 3 -12 0 -8 -10 7 -20 -4 -19
-20 3 -12 16 -13 15 -11 -5 1 -13 6 -23 12 -23 5 0 4 -4 -4 -9 -8 -5 -11 -16
-8 -24 4 -11 -1 -14 -18 -12 -15 1 -22 -2 -18 -8 3 -6 8 -26 10 -46 2 -27 1
-32 -7 -21 -12 18 -13 1 -2 -18 5 -7 17 -10 28 -7 14 5 13 3 -4 -7 -12 -8 -21
-16 -18 -19 3 -2 7 -17 10 -33 4 -21 2 -26 -9 -23 -23 9 -25 -5 -3 -22 15 -13
19 -23 14 -39 -4 -12 -12 -20 -17 -17 -5 3 -6 -2 -2 -11 5 -13 3 -15 -8 -9 -8
5 -5 -1 5 -13 11 -12 22 -20 25 -17 3 4 -1 10 -9 15 -9 6 -10 10 -3 10 24 0
26 -24 3 -42 -20 -16 -19 -23 4 -19 5 1 6 -5 3 -14 -4 -10 0 -15 12 -15 11 0
22 6 24 13 3 7 6 4 6 -6 1 -11 6 -15 13 -11 6 4 8 3 5 -3 -7 -11 -65 -5 -73 8
-3 5 -10 9 -16 9 -7 0 -7 -4 0 -13 11 -13 11 -41 0 -52 -3 -4 0 -18 8 -33 10
-20 10 -28 1 -34 -8 -5 -6 -9 7 -14 14 -5 15 -9 4 -15 -10 -7 -11 -9 0 -9 7 0
11 -4 7 -10 -3 -5 -6 -25 -7 -44 -1 -19 -5 -33 -9 -31 -4 3 -9 -2 -13 -10 -3
-8 0 -14 6 -12 7 1 12 -2 13 -8 0 -5 4 -16 9 -24 6 -9 5 -12 -2 -7 -6 3 -13 2
-16 -3 -3 -5 8 -14 24 -20 37 -12 40 -26 3 -16 -23 5 -25 4 -14 -9 9 -11 10
-20 2 -35 -14 -25 -14 -42 0 -19 5 10 19 23 31 29 15 8 19 8 14 0 -4 -6 -3
-11 1 -11 11 0 9 112 -2 130 -5 8 -4 11 2 7 6 -4 13 0 16 7 3 8 1 17 -6 20 -9
5 -9 7 1 12 10 5 10 9 1 20 -6 8 -8 14 -4 14 4 0 2 7 -5 15 -11 13 -10 14 6 9
18 -7 18 -6 -1 16 -19 22 -19 23 -1 17 15 -6 18 -3 14 17 -4 19 -1 24 14 21
10 -2 18 2 18 8 0 9 2 9 8 0 6 -9 11 -7 20 7 10 17 10 20 -5 21 -16 0 -16 1 1
8 14 5 16 10 8 15 -7 4 -16 5 -22 1 -16 -10 -42 40 -34 69 8 35 22 42 38 20
12 -15 13 -14 11 12 -1 16 -4 35 -6 42 -6 22 26 38 45 23 25 -21 19 -33 -7
-16 -21 13 -23 13 -23 -6 0 -13 5 -18 15 -14 12 5 12 3 0 -12 -12 -15 -12 -16
7 -11 18 5 21 2 16 -16 -3 -11 -1 -18 3 -14 15 14 13 73 -3 91 -8 9 -25 17
-36 17 -17 0 -18 2 -6 9 8 6 17 8 21 5 4 -2 12 2 18 10 9 11 5 19 -19 40 -18
14 -28 26 -23 26 5 0 14 -5 21 -12 9 -9 12 -7 12 11 0 18 -4 21 -22 16 l-23
-7 23 17 c18 14 20 20 11 37 -10 18 -9 20 5 15 10 -4 16 -1 16 9 0 11 -6 13
-21 9 -18 -6 -20 -4 -15 13 5 15 1 24 -13 32 -13 7 -18 16 -14 27 5 12 2 15
-10 10 -9 -3 -19 -3 -21 2 -3 4 10 8 28 8 27 0 33 -4 31 -21 -2 -32 5 -39 21
-19 12 17 13 17 14 1 0 -10 -4 -18 -10 -18 -5 0 -10 -4 -10 -10 0 -5 7 -10 15
-10 8 0 15 5 15 10 0 6 5 10 11 10 5 0 7 -6 3 -12 -4 -7 3 -3 15 10 12 12 19
27 15 34 -5 8 -9 6 -14 -6 -6 -17 -7 -17 -23 -2 -9 9 -15 22 -13 29 1 7 1 9
-1 4 -8 -13 -22 3 -16 18 3 8 0 15 -7 15 -6 0 -8 -4 -5 -10 10 -16 -11 -12
-25 5 -6 8 -9 18 -6 24 3 5 -1 11 -9 14 -9 4 -12 1 -8 -9z"/>
<path d="M5227 4982 c-10 -10 -14 -22 -10 -26 5 -4 9 -12 9 -17 1 -5 2 -10 4
-11 6 -8 5 -46 -1 -43 -10 7 -20 -25 -12 -37 3 -6 1 -8 -4 -5 -6 4 -25 -6 -42
-22 -20 -19 -27 -31 -19 -34 10 -3 7 -11 -7 -28 -11 -13 -13 -18 -4 -11 9 6
19 9 23 5 4 -4 11 -1 15 6 7 10 11 8 16 -9 5 -16 9 -19 15 -10 5 8 8 3 7 -13
-2 -33 -3 -33 -20 -1 -12 23 -15 24 -27 9 -21 -25 -20 -54 1 -50 21 4 34 -24
19 -39 -8 -8 -9 -5 -5 9 6 16 5 17 -4 5 -7 -11 -6 -19 6 -32 18 -20 4 -25 -17
-5 -12 10 -12 9 -2 -4 6 -9 8 -19 4 -24 -4 -4 4 -5 18 -1 24 6 24 5 -2 -7 -25
-12 -26 -14 -10 -25 15 -12 15 -12 -5 -9 -15 3 -20 1 -16 -9 3 -8 1 -14 -5
-14 -6 0 -9 -8 -7 -17 2 -10 4 -22 4 -26 1 -5 5 -6 10 -3 5 3 7 16 4 29 -4 20
-2 19 22 -8 14 -16 23 -22 19 -12 -4 10 -1 17 7 17 7 0 9 -3 6 -7 -4 -3 1 -12
11 -20 9 -8 11 -12 5 -8 -7 3 -13 1 -13 -5 0 -6 -4 -8 -10 -5 -14 9 -12 -8 3
-25 10 -12 9 -12 -6 -1 -9 8 -16 20 -15 29 4 23 -14 24 -42 1 -16 -14 -19 -19
-7 -15 9 3 17 1 17 -5 0 -6 5 -7 10 -4 6 3 10 -2 10 -11 0 -14 -3 -15 -12 -6
-15 15 -31 16 -22 0 5 -8 1 -9 -12 -5 -11 4 -4 -7 18 -28 40 -38 42 -44 4 -20
-20 13 -24 13 -29 2 -7 -18 8 -41 21 -33 5 3 12 0 15 -8 5 -11 0 -13 -24 -6
-18 5 -27 5 -24 -1 4 -5 14 -9 23 -10 10 0 12 -3 5 -6 -7 -2 -15 -4 -18 -4
-12 3 -33 -25 -27 -34 12 -18 8 -30 -13 -43 -20 -12 -20 -12 0 -10 12 2 19 -2
17 -11 -1 -7 2 -19 8 -25 13 -16 3 -26 -18 -19 -10 4 -13 2 -8 -5 4 -7 3 -12
-2 -12 -12 0 -11 -32 2 -49 8 -11 8 -13 -1 -7 -8 4 -13 2 -13 -4 0 -6 -4 -9
-9 -6 -4 3 -16 -1 -27 -8 -15 -11 -16 -17 -6 -28 12 -15 7 -28 -10 -28 -5 0
-6 5 -2 12 4 7 3 8 -4 4 -7 -4 -10 -17 -8 -29 3 -12 5 -26 5 -30 1 -5 6 -5 11
-2 6 3 10 -1 10 -9 0 -8 -5 -18 -10 -21 -6 -4 -9 -1 -8 6 2 6 -3 14 -11 16 -9
4 -11 0 -6 -16 4 -12 2 -21 -4 -21 -6 0 -11 4 -11 8 0 5 -7 9 -15 9 -8 0 -15
-4 -15 -9 0 -4 5 -8 10 -8 6 0 10 -6 10 -14 0 -8 5 -16 11 -18 6 -2 2 -14 -11
-28 -18 -22 -19 -22 -8 -3 10 19 10 25 -1 35 -12 11 -13 10 -7 -6 3 -10 2 -24
-4 -31 -8 -9 -3 -17 16 -30 26 -17 27 -17 20 1 -5 15 -4 16 5 7 13 -13 3 -37
-12 -28 -5 4 -9 -1 -9 -9 0 -10 6 -13 15 -10 11 5 13 2 9 -10 -3 -9 -2 -16 4
-16 6 0 13 6 15 13 3 7 6 4 6 -6 1 -11 6 -15 12 -11 8 5 8 1 0 -14 -14 -27
-28 -35 -36 -22 -4 6 -1 9 6 8 6 -2 13 2 16 8 2 6 -2 11 -9 11 -7 0 -21 4 -30
8 -11 4 -18 3 -18 -5 0 -6 5 -8 10 -5 6 3 10 -4 10 -17 -1 -20 -2 -21 -11 -5
-11 18 -39 24 -39 7 0 -5 5 -9 11 -7 6 1 14 -5 16 -13 4 -12 3 -12 -5 -2 -7
11 -12 10 -26 -3 -18 -19 -21 -35 -5 -35 5 0 7 5 4 10 -3 6 2 10 11 10 16 0
16 -1 -1 -20 -12 -13 -14 -20 -6 -20 7 0 11 -6 8 -12 -2 -7 -13 -12 -23 -10
-19 2 -19 2 0 -12 10 -9 23 -13 28 -9 6 3 5 -4 -1 -15 -7 -14 -7 -22 -1 -25 6
-3 5 -4 -2 -3 -7 2 -12 12 -10 22 2 15 1 16 -7 4 -5 -8 -8 -17 -5 -21 2 -4 0
-10 -6 -14 -5 -3 -10 -1 -10 5 0 6 -5 8 -11 4 -8 -4 -7 -9 2 -15 7 -4 17 -5
23 -2 5 4 7 -3 4 -15 -4 -16 -2 -22 9 -22 12 0 13 -3 4 -13 -6 -8 -7 -18 -3
-22 4 -5 1 -5 -6 -1 -7 4 -10 12 -7 17 3 5 -1 6 -9 3 -9 -3 -16 2 -18 13 -3
15 -5 15 -10 -5 -3 -12 -2 -20 3 -16 13 7 11 -33 -2 -58 -8 -15 -8 -19 0 -14
6 4 11 2 11 -3 0 -6 -5 -11 -11 -11 -7 0 -10 -13 -7 -34 3 -27 0 -37 -16 -44
-19 -8 -19 -9 5 -33 13 -13 25 -35 26 -49 2 -21 0 -22 -8 -7 -6 9 -7 23 -4 30
4 6 0 4 -9 -6 -8 -11 -12 -26 -9 -35 4 -10 2 -13 -5 -8 -6 3 -14 1 -18 -5 -5
-8 -3 -9 6 -4 9 6 10 2 5 -16 -4 -13 -12 -27 -17 -30 -12 -7 -10 -19 4 -37 8
-9 6 -17 -6 -30 -9 -10 -16 -23 -16 -29 0 -6 -6 -13 -12 -16 -10 -3 -10 -8 1
-21 12 -14 12 -16 -3 -10 -11 4 -16 1 -16 -10 0 -9 6 -13 14 -10 8 3 17 1 20
-4 3 -5 -2 -9 -12 -8 -9 0 -16 -4 -15 -11 2 -7 -4 -10 -15 -7 -12 4 -9 -1 8
-17 15 -13 18 -20 8 -16 -9 3 -24 -1 -35 -8 -17 -13 -16 -14 9 -9 15 2 29 0
33 -6 3 -5 0 -7 -7 -5 -35 14 -67 -80 -38 -109 13 -13 13 -26 -1 -26 -5 0 -7
5 -4 10 3 6 1 10 -5 10 -7 0 -9 -15 -7 -40 2 -22 2 -38 -1 -35 -6 6 -31 -26
-31 -40 0 -5 5 -3 12 6 7 8 21 18 32 22 14 5 9 -2 -13 -22 -23 -20 -30 -34
-25 -47 4 -12 3 -15 -5 -10 -8 5 -10 1 -5 -10 5 -14 3 -16 -12 -11 -16 7 -17
3 -12 -29 5 -28 3 -35 -8 -31 -10 5 -11 -1 -5 -24 5 -17 5 -29 -1 -29 -5 0 -9
8 -10 18 0 9 -3 12 -5 5 -3 -6 2 -23 12 -38 9 -14 14 -28 11 -32 -4 -3 -9 2
-13 11 -3 9 -10 13 -16 10 -5 -3 -4 -12 3 -20 10 -12 8 -18 -7 -29 -12 -9 -14
-14 -6 -15 8 0 10 -5 6 -12 -5 -8 0 -7 11 2 17 14 18 13 12 -4 -4 -10 -3 -24
3 -31 7 -8 5 -12 -5 -12 -8 0 -12 5 -9 11 3 6 -2 2 -10 -8 -18 -22 -21 -40 -6
-31 5 3 7 0 4 -8 -6 -18 9 -29 28 -22 9 4 13 22 13 51 0 25 3 48 8 51 4 2 5 8
2 13 -3 4 5 5 17 2 22 -5 22 -5 6 12 -22 22 -23 27 -3 19 13 -4 15 0 11 21 -3
15 -1 24 4 21 5 -3 12 6 16 20 3 14 10 25 16 25 17 0 45 35 43 52 -3 14 2 17
21 12 16 -4 24 -2 24 7 0 12 2 12 9 0 5 -8 14 -10 21 -6 9 5 11 4 6 -3 -4 -7
-2 -12 3 -12 6 0 11 7 11 15 0 8 -5 15 -11 15 -9 0 -8 31 3 70 3 8 3 12 1 8
-8 -13 -20 -9 -20 7 0 18 23 20 34 3 11 -19 10 -41 -5 -57 -7 -7 -10 -16 -7
-19 3 -4 9 -2 13 4 11 17 39 23 51 11 8 -8 11 -6 11 8 0 17 2 17 23 -4 16 -14
30 -19 43 -15 10 4 16 4 12 0 -4 -5 -3 -19 3 -33 5 -15 5 -22 0 -18 -5 3 -12
1 -16 -5 -3 -5 -1 -10 5 -10 6 0 8 -4 5 -10 -3 -6 0 -10 7 -10 8 -1 7 -6 -5
-14 -18 -14 -18 -14 0 -19 17 -4 17 -5 0 -6 -11 -1 -15 -6 -11 -13 4 -6 -1
-17 -11 -25 -11 -7 -14 -13 -8 -13 7 0 14 4 17 9 3 5 15 7 25 4 10 -3 22 0 25
6 4 7 1 8 -8 5 -9 -3 -16 -1 -16 5 0 6 5 11 12 11 6 0 8 3 5 7 -4 3 3 18 15
31 13 14 16 21 8 17 -13 -8 -13 -6 -2 8 8 9 11 21 7 27 -3 5 2 10 13 10 14 0
19 6 17 24 -2 19 1 23 13 19 11 -5 13 -3 6 8 -4 8 -9 20 -10 27 -2 10 1 11 12
1 11 -9 14 -7 14 15 0 17 4 25 11 20 8 -4 9 0 4 15 -4 13 -2 21 5 21 6 0 9 4
6 9 -3 4 1 16 8 27 8 10 12 24 9 31 -3 7 2 13 11 13 9 0 15 3 14 8 -1 4 2 22
6 41 6 25 11 30 17 20 6 -10 9 -11 9 -1 0 6 4 12 10 12 5 0 6 -8 3 -17 -5 -13
-3 -13 13 3 24 24 28 64 5 64 -12 0 -13 2 -3 8 8 5 10 16 6 27 -5 12 -4 16 3
12 6 -4 17 0 24 9 10 13 10 17 0 24 -10 6 -8 10 8 15 12 3 19 10 16 15 -3 5
-1 12 5 15 14 9 42 -14 33 -28 -3 -6 -1 -7 6 -3 9 6 9 11 0 22 -6 8 -9 17 -5
21 9 10 35 -29 29 -44 -3 -7 -9 -13 -15 -13 -5 0 -7 -4 -4 -9 8 -13 46 -1 46
14 0 7 6 16 13 18 7 3 5 6 -5 6 -23 1 -43 37 -26 47 7 4 8 3 4 -4 -4 -7 -2
-12 4 -12 6 0 9 -4 6 -9 -3 -5 6 -12 21 -16 24 -6 26 -8 10 -16 -13 -8 -15
-15 -8 -28 16 -30 21 -74 10 -87 -7 -9 -7 -18 0 -31 6 -10 11 -12 11 -5 0 6 7
12 15 12 8 0 15 6 15 13 0 9 3 8 9 -2 6 -9 11 -10 15 -2 11 16 -22 25 -39 11
-10 -8 -15 -9 -15 -2 0 14 35 34 44 25 3 -3 6 -1 6 4 0 6 -6 14 -12 17 -9 3
-8 8 5 16 9 6 15 16 12 21 -4 5 -9 7 -13 5 -4 -2 -8 7 -8 20 -1 13 2 24 7 24
5 0 9 -6 9 -12 0 -9 3 -9 9 1 10 16 3 44 -9 36 -5 -3 -6 4 -3 15 3 11 0 27 -8
36 -7 8 -8 14 -3 12 5 -2 9 2 9 7 0 6 -3 9 -7 8 -4 -2 -5 4 -2 12 4 8 10 13
14 10 5 -3 7 14 5 37 -3 59 -4 60 -15 53 -15 -9 -12 4 5 21 8 8 12 21 8 30 -7
18 -25 14 -31 -7 -3 -11 -2 -11 7 1 6 8 11 10 11 4 0 -5 -5 -15 -12 -22 -9 -9
-14 -7 -24 6 -15 19 -15 17 -17 -49 -1 -19 -5 -25 -16 -21 -10 4 -13 -1 -9
-21 5 -25 4 -25 -19 -10 -14 10 -23 11 -23 4 0 -6 -5 -11 -11 -11 -6 0 -8 9
-4 20 4 12 2 20 -5 20 -6 0 -9 4 -6 9 4 5 1 11 -5 13 -6 2 -11 23 -12 47 -1
32 4 47 18 57 10 8 13 14 7 14 -7 0 -12 7 -12 15 0 8 5 15 10 15 19 0 10 22
-11 27 -19 5 -21 11 -16 48 4 38 2 44 -21 54 -13 7 -22 15 -18 18 3 4 12 1 18
-5 7 -7 17 -12 22 -12 6 0 3 5 -7 11 -9 6 -15 14 -12 20 11 17 -11 9 -34 -12
-12 -12 -20 -28 -17 -36 3 -8 1 -11 -4 -8 -12 8 -13 -5 0 -25 6 -9 5 -19 -2
-28 -9 -10 -9 -15 1 -21 10 -6 9 -10 -4 -15 -9 -3 -13 -11 -10 -17 8 -12 -34
-61 -45 -54 -4 3 -15 -4 -25 -15 -10 -11 -25 -20 -34 -20 -9 0 -12 -3 -6 -8 6
-4 11 -17 11 -30 1 -18 -1 -20 -12 -11 -10 8 -14 8 -14 1 0 -6 4 -13 9 -16 11
-7 9 -25 -3 -45 -7 -11 -5 -13 10 -7 15 6 16 5 7 -5 -10 -10 -16 -9 -29 2 -12
9 -15 10 -10 2 4 -7 2 -13 -3 -13 -6 0 -11 -5 -11 -11 0 -6 7 -9 15 -5 9 3 15
0 15 -10 0 -8 -4 -12 -10 -9 -5 3 -10 1 -10 -5 0 -7 -8 -9 -20 -5 -12 4 -20 2
-20 -5 0 -6 6 -8 13 -4 10 6 10 4 0 -7 -7 -7 -13 -17 -13 -22 0 -4 6 -5 13 -2
6 4 3 -1 -7 -9 -11 -9 -24 -16 -29 -16 -5 0 -6 -7 -3 -15 5 -14 1 -13 -25 2
-35 20 -61 57 -33 46 14 -5 15 -3 5 15 -9 18 -7 25 11 42 18 16 19 20 5 14
-16 -6 -16 -4 -6 20 10 20 10 29 1 38 -7 7 -12 8 -12 2 0 -6 -6 -11 -14 -11
-11 0 -10 8 5 36 19 38 20 54 1 87 -8 14 -8 24 -1 31 8 8 7 13 0 17 -6 4 -11
2 -11 -3 0 -6 -7 -11 -17 -11 -14 0 -15 2 -1 18 9 9 14 24 13 33 -2 12 3 15
18 11 14 -3 18 -1 13 6 -4 7 -1 12 7 12 9 0 13 10 12 30 -1 20 2 29 10 27 6
-3 12 4 12 14 1 10 -3 19 -8 19 -6 0 -7 -6 -3 -12 5 -10 4 -10 -6 -1 -9 9 -8
15 9 32 12 12 23 21 26 21 3 0 7 0 10 0 3 0 0 6 -7 14 -7 8 -17 11 -23 8 -5
-2 -5 1 2 8 6 7 9 20 7 29 -3 9 2 5 11 -9 l16 -25 -6 28 c-4 19 -2 26 5 22 5
-3 10 3 10 14 0 11 -4 23 -10 26 -5 3 -10 -1 -10 -9 0 -8 -4 -18 -10 -21 -5
-3 -8 1 -5 9 16 52 14 50 36 30 l21 -19 -15 37 c-16 37 -16 38 8 44 15 4 22
11 18 17 -11 18 -11 46 0 44 5 -1 10 12 11 30 0 17 -1 31 -4 31 -20 -1 -30 3
-25 12 3 5 13 6 22 3 12 -5 14 -3 8 6 -4 8 -2 17 6 23 11 8 10 9 -3 5 -9 -3
-19 1 -22 9 -3 9 -1 12 4 9 6 -3 10 -2 10 4 0 5 -8 15 -17 20 -12 7 -13 10 -4
11 7 0 11 6 8 14 -3 8 1 22 9 33 14 17 14 16 4 -4 -12 -25 -2 -31 18 -11 7 7
12 9 12 5 0 -3 -10 -15 -22 -27 -25 -23 -20 -25 16 -9 16 8 23 17 19 28 -4 13
-3 13 5 2 15 -21 40 -6 40 23 0 16 -5 23 -12 20 -6 -3 0 5 14 17 15 13 18 20
8 16 -13 -4 -16 -1 -14 17 1 12 6 27 10 34 4 7 2 12 -3 12 -6 0 -11 -4 -11 -8
0 -5 -7 -17 -16 -28 -8 -10 -13 -13 -9 -6 4 8 -1 12 -15 12 -12 0 -19 4 -16 9
4 5 -6 19 -21 30 -19 13 -23 20 -12 21 8 0 20 -5 27 -12 7 -7 12 -8 12 -4 0 5
6 3 13 -3 10 -8 19 -6 36 10 12 12 25 18 28 15 4 -3 3 -6 -2 -6 -4 0 -2 -7 5
-15 7 -8 17 -15 23 -15 6 0 2 7 -9 15 -12 9 -14 14 -6 15 7 0 11 4 7 9 -3 5
-1 12 5 16 5 3 10 -1 10 -9 0 -9 5 -16 10 -16 6 0 10 5 10 10 0 6 5 10 11 10
5 0 7 -4 4 -10 -3 -5 -1 -10 4 -10 16 0 13 36 -4 50 -12 10 -15 10 -15 0 0
-10 -3 -10 -15 0 -17 14 -9 34 11 26 9 -3 14 2 14 14 0 11 -5 20 -11 20 -5 0
-8 4 -5 9 8 12 -18 21 -34 11 -7 -4 -10 -15 -6 -25 4 -11 2 -15 -6 -12 -7 2
-11 11 -9 18 2 8 4 19 4 26 0 7 3 12 6 11 26 -3 40 4 35 17 -4 8 -4 15 -1 15
8 0 46 -83 42 -91 -3 -4 2 -10 11 -13 12 -5 14 -1 8 17 -12 36 -12 61 0 70 6
5 1 5 -11 2 -23 -6 -24 -5 -27 36 0 11 -10 25 -21 31 -11 6 -22 12 -24 14 -1
1 8 14 20 27 21 21 27 22 47 12 18 -10 20 -14 8 -18 -8 -3 -18 -2 -21 3 -10
15 -25 12 -25 -6 0 -8 5 -12 10 -9 6 3 10 -2 10 -11 0 -16 1 -16 15 2 12 15
16 16 24 5 4 -7 10 -9 13 -5 11 22 0 40 -31 55 -22 10 -30 19 -22 23 6 4 9 17
7 29 -3 12 1 6 10 -13 16 -33 17 -34 25 -13 8 23 35 22 50 0 4 -5 9 -5 13 2 4
6 3 11 -2 11 -13 0 -6 80 8 93 10 10 12 8 6 -6 -7 -23 1 -40 16 -31 7 4 6 9
-2 14 -9 6 -6 10 9 15 11 3 21 11 21 17 0 7 -5 6 -14 -1 -9 -7 -17 -8 -20 -2
-3 5 -1 11 6 13 7 3 9 12 5 22 -4 9 -11 15 -16 11 -6 -3 -7 -13 -4 -22 4 -11
3 -14 -6 -9 -6 4 -11 4 -10 -1 4 -21 -2 -24 -18 -12 -16 13 -17 12 -5 -3 8
-10 9 -19 3 -22 -5 -4 -12 -2 -16 4 -4 6 -10 8 -15 5 -4 -3 -11 2 -14 11 -3 8
-2 13 3 10 5 -3 11 3 14 13 3 11 -1 22 -9 25 -8 3 -13 0 -11 -7 1 -7 -3 -11
-10 -10 -7 2 -10 -6 -8 -17 2 -11 0 -22 -4 -25 -5 -2 -8 5 -7 18 0 12 -4 22
-11 22 -7 0 -17 6 -22 13 -8 8 -8 9 0 3 14 -12 40 -2 57 20 11 15 17 16 38 7
15 -7 20 -14 13 -18 -8 -6 -8 -10 1 -15 14 -9 32 14 22 29 -8 14 -10 46 -2 46
3 0 12 -6 19 -12 11 -10 13 -10 7 0 -4 6 -2 12 4 12 7 0 9 -8 5 -20 -4 -14 -2
-20 9 -20 12 0 14 5 6 24 -6 16 -5 28 3 36 9 10 9 11 0 6 -8 -4 -13 -1 -13 8
0 8 -8 20 -17 25 -17 8 -22 10 -40 12 -5 0 3 5 16 10 13 5 21 12 18 16 -4 3
-19 -3 -34 -13 -23 -15 -25 -19 -10 -22 9 -2 17 -8 17 -13 0 -6 -4 -8 -9 -5
-12 8 -23 -23 -14 -37 4 -7 8 -21 10 -32 1 -11 -1 -14 -3 -7 -8 18 -28 15 -57
-8 -14 -11 -32 -17 -41 -14 -19 7 -21 20 -4 30 6 4 8 3 4 -4 -3 -6 -2 -13 4
-17 5 -3 10 -2 10 3 0 5 9 13 20 18 14 7 17 13 10 24 -8 13 -10 12 -10 -2 0
-20 -15 -24 -25 -8 -3 6 -1 10 5 10 6 0 8 5 5 11 -4 6 -14 8 -22 5 -8 -3 -11
-1 -8 4 3 6 13 10 21 10 12 0 12 4 4 20 -6 11 -8 20 -5 20 3 0 1 9 -5 20 -8
16 -8 18 4 14 8 -3 17 0 22 7 4 8 3 10 -4 5 -7 -4 -12 -1 -12 7 0 7 -10 23
-22 35 -44 40 -48 49 -33 62 8 7 22 10 30 6 9 -3 13 -2 10 4 -10 15 -30 12
-48 -8z"/>
<path d="M5523 4573 c4 -6 -5 -21 -18 -33 -23 -21 -30 -20 -26 3 1 5 -3 6 -9
2 -5 -3 -10 -13 -10 -21 0 -8 4 -13 9 -9 5 3 12 1 15 -4 4 -5 2 -12 -4 -16 -5
-3 -10 -11 -10 -16 0 -6 5 -7 12 -3 7 4 8 3 4 -5 -4 -6 -12 -9 -17 -6 -5 4 -9
-1 -9 -9 0 -9 -4 -16 -10 -16 -5 0 -10 4 -10 9 0 5 -7 11 -15 14 -12 5 -12 2
-3 -18 6 -13 16 -21 23 -19 18 7 30 -15 16 -29 -9 -9 -11 -8 -6 6 4 10 2 17
-4 17 -6 0 -11 -7 -11 -15 0 -8 -5 -15 -10 -15 -6 0 -10 -6 -9 -12 3 -25 -1
-39 -10 -34 -5 4 -7 -3 -4 -14 3 -11 1 -20 -5 -20 -6 0 -13 10 -15 23 -3 19
-4 19 -3 -3 1 -31 36 -42 36 -12 0 11 7 23 16 26 13 5 14 4 6 -7 -6 -7 -10
-23 -7 -35 3 -17 -1 -22 -16 -22 -31 0 -22 -15 12 -17 22 -2 29 1 26 11 -3 7
-1 19 4 27 8 11 9 10 7 -6 -3 -21 18 -28 40 -12 18 14 15 27 -5 20 -15 -6 -16
-5 -3 9 8 9 18 14 23 11 4 -2 7 3 7 11 0 10 -6 13 -16 9 -13 -5 -15 -2 -9 16
4 13 1 27 -9 37 -9 8 -16 25 -15 37 1 20 2 20 8 -3 4 -14 16 -27 26 -29 16 -3
17 -1 7 11 -6 8 -9 17 -6 21 3 3 0 15 -6 27 -6 12 -8 29 -4 38 4 9 6 23 5 30
-1 6 2 12 7 12 15 0 22 29 10 36 -6 4 -8 3 -5 -3z"/>
<path d="M5662 4110 c-12 -13 -26 -19 -34 -15 -7 4 -2 -3 12 -15 22 -18 23
-20 5 -18 -16 2 -19 -2 -18 -22 8 -104 12 -141 19 -152 6 -10 5 -11 -7 -1 -12
10 -15 8 -15 -8 0 -10 6 -19 13 -19 7 0 13 -5 13 -11 0 -5 5 -7 10 -4 6 3 10
1 10 -4 0 -6 -4 -11 -10 -11 -5 0 -7 -8 -3 -17 7 -19 5 -18 -17 11 -12 16 -12
18 -1 11 10 -6 12 -4 6 4 -13 22 -28 -4 -16 -27 15 -28 14 -55 -1 -46 -7 4
-10 4 -6 -1 4 -4 3 -14 -4 -22 -8 -10 -8 -12 4 -8 9 4 15 0 15 -9 0 -8 -4 -13
-9 -10 -4 3 -8 0 -8 -5 0 -6 7 -11 16 -11 15 0 15 -2 0 -25 -9 -13 -16 -32
-15 -42 0 -16 1 -16 9 2 5 11 9 15 9 8 1 -6 4 -18 7 -26 3 -10 -4 -17 -21 -21
-15 -4 -25 -11 -23 -17 5 -14 24 -10 20 4 -2 6 6 3 17 -7 22 -20 28 -32 11
-21 -5 3 -10 1 -10 -5 0 -6 -4 -8 -10 -5 -5 3 -10 -1 -10 -9 0 -9 4 -16 9 -16
4 0 8 -20 7 -44 0 -24 -4 -42 -9 -39 -4 2 -4 10 -1 16 4 7 3 8 -2 4 -11 -10
-13 -57 -3 -57 4 0 10 -8 13 -17 4 -10 4 -14 0 -10 -4 4 -13 2 -20 -4 -16 -13
3 -62 19 -52 6 3 7 1 3 -6 -4 -6 -2 -20 5 -29 10 -12 8 -12 -9 2 l-23 20 10
-25 c5 -13 14 -23 21 -21 6 1 9 -2 5 -8 -3 -6 -10 -8 -15 -5 -12 8 -9 -37 4
-54 8 -11 8 -13 -1 -7 -16 9 -16 5 -3 -28 5 -14 6 -26 1 -26 -4 0 -12 -16 -18
-35 -7 -21 -7 -35 -2 -35 6 0 16 -6 23 -12 11 -10 10 -19 -6 -46 -18 -33 -18
-35 -1 -49 10 -8 13 -12 7 -9 -15 8 -25 -17 -14 -35 5 -8 4 -19 -2 -26 -7 -9
-7 -13 1 -13 8 0 8 -5 -1 -19 -10 -16 -9 -23 5 -39 9 -10 14 -22 11 -25 -4 -4
-1 -15 7 -24 13 -16 12 -17 -3 -4 -21 16 -22 12 -8 -25 10 -25 9 -26 -6 -13
-16 13 -16 12 -6 -7 6 -11 9 -41 8 -67 -2 -26 0 -47 5 -47 5 0 9 -5 9 -11 0
-5 -5 -7 -11 -3 -7 4 -7 -1 1 -16 7 -12 8 -20 2 -16 -5 3 -12 -3 -15 -14 -3
-11 -2 -18 2 -15 11 6 1 -47 -12 -62 -7 -9 -5 -13 8 -13 14 0 15 -3 5 -15 -10
-12 -10 -15 0 -15 8 0 10 -3 7 -7 -4 -3 -1 -13 6 -21 8 -10 8 -13 1 -9 -13 8
-27 -17 -16 -28 4 -4 7 -12 7 -18 1 -7 7 -11 15 -9 8 1 5 -6 -8 -16 -21 -16
-22 -21 -11 -46 11 -23 10 -29 -2 -37 -10 -6 -10 -9 -1 -9 6 0 12 -5 12 -11 0
-5 -4 -8 -10 -4 -5 3 -3 -7 5 -22 8 -15 11 -32 6 -37 -9 -12 -8 -29 5 -60 5
-13 4 -17 -4 -12 -7 4 -10 -14 -7 -61 3 -44 1 -62 -5 -53 -8 13 -10 12 -10 -2
0 -10 5 -18 10 -18 6 0 10 -5 10 -11 0 -6 -7 -9 -14 -6 -10 4 -13 1 -10 -8 3
-8 13 -11 22 -9 14 5 14 4 -1 -6 -9 -6 -15 -15 -12 -20 3 -5 1 -18 -5 -29 -7
-14 -7 -22 1 -26 6 -4 8 -14 4 -22 -5 -13 -3 -14 10 -3 14 12 15 11 4 -13 -7
-15 -16 -24 -22 -20 -5 3 -8 0 -5 -8 3 -8 10 -15 16 -15 7 -1 15 -2 19 -3 3 0
-2 -10 -11 -20 -17 -18 -17 -20 1 -30 11 -7 13 -11 4 -11 -7 0 -11 -6 -8 -14
4 -11 1 -13 -11 -9 -15 5 -14 3 2 -16 20 -22 20 -22 0 -15 -17 7 -17 6 -5 -9
7 -9 11 -24 7 -32 -3 -9 -2 -14 3 -11 5 3 11 -3 14 -15 5 -17 3 -18 -9 -8 -8
6 -17 9 -21 5 -3 -3 -1 -6 6 -6 8 0 10 -7 6 -20 -3 -10 -1 -30 6 -42 9 -19 9
-21 -2 -10 -19 18 -33 15 -15 -4 13 -12 14 -20 4 -37 -10 -19 -9 -20 4 -9 13
10 15 9 10 -13 -2 -14 -11 -25 -21 -25 -14 -1 -13 -3 3 -15 11 -8 15 -19 10
-27 -4 -7 -3 -10 1 -5 5 4 17 -1 28 -10 12 -11 17 -12 12 -4 -6 11 -2 13 17 9
30 -6 52 14 35 32 -9 10 -8 12 4 7 13 -4 15 -1 12 14 -3 10 -8 19 -12 19 -4 0
-5 16 -3 35 3 22 0 35 -7 35 -7 0 -9 5 -4 13 10 16 10 37 1 64 -4 13 -3 25 3
29 6 3 9 29 7 60 -3 41 -1 53 8 50 10 -4 11 1 4 19 -6 16 -5 25 3 28 9 3 8 9
-3 22 -9 11 -10 16 -2 11 7 -4 12 -2 12 8 0 8 6 17 13 19 9 4 8 6 -2 6 -11 1
-11 4 0 18 12 14 12 16 -1 9 -8 -4 -4 2 9 13 13 12 19 21 13 21 -16 0 -22 28
-7 34 10 3 12 0 9 -12 -5 -14 -4 -15 5 -2 15 21 14 53 -1 44 -9 -6 -9 -3 0 9
8 9 11 21 8 26 -4 5 6 11 21 13 21 2 28 9 29 26 1 12 -3 25 -9 29 -6 3 -7 2
-4 -4 4 -6 -6 -9 -23 -8 -23 1 -27 -1 -19 -11 7 -8 6 -14 -2 -20 -7 -4 -9 -3
-6 3 4 6 0 14 -9 17 -9 4 -13 2 -8 -5 4 -7 1 -10 -7 -7 -8 3 -13 13 -11 23 2
9 -1 14 -7 11 -6 -4 -9 13 -7 45 1 28 -1 52 -4 54 -10 6 -3 116 8 127 7 7 7
19 2 34 -6 16 -6 24 1 24 6 0 7 5 4 10 -4 6 -11 7 -17 4 -7 -4 -8 -2 -4 5 7
11 13 72 17 170 1 25 -3 46 -11 51 -10 6 -9 9 1 12 11 4 12 9 2 26 -7 12 -10
28 -7 36 3 8 1 17 -5 21 -8 4 -8 12 -1 26 7 13 7 19 0 19 -5 0 -10 5 -10 11 0
6 6 9 14 6 15 -6 15 20 1 43 -3 6 -2 10 4 10 7 0 7 8 1 26 -13 32 -12 37 0 29
11 -7 5 49 -7 68 -3 6 -1 7 5 3 7 -4 12 -3 12 3 0 5 -4 12 -9 16 -6 3 -6 17 1
35 7 23 7 34 -2 45 -9 11 -9 15 -1 15 8 0 10 14 7 41 -4 34 -3 39 7 25 11 -14
12 -14 12 8 0 13 -4 21 -10 18 -5 -3 -2 6 8 21 19 30 23 52 5 41 -7 -4 -8 -3
-4 5 4 6 10 9 14 7 4 -2 15 7 25 20 10 14 15 23 10 22 -4 -2 -9 2 -10 7 -1 6
5 9 14 7 8 -2 12 1 8 7 -3 6 0 11 7 11 10 0 9 3 -2 9 -8 6 -18 7 -24 4 -5 -4
-6 -1 -2 6 5 7 14 10 22 7 8 -3 14 -1 14 4 0 6 7 10 15 10 19 0 19 10 0 46
-11 22 -12 30 -2 36 7 4 8 8 4 8 -4 0 -3 9 3 19 7 14 7 22 -2 27 -7 5 -8 3 -3
-7 5 -8 4 -10 0 -6 -12 11 -15 37 -4 37 5 0 9 5 9 11 0 5 -3 8 -7 6 -5 -3 -8
16 -8 41 0 26 -2 52 -5 57 -10 22 -10 48 1 61 6 8 7 14 2 14 -5 0 -10 7 -10
15 0 8 4 15 9 15 5 0 7 4 4 8 -3 5 4 16 16 26 17 15 18 20 7 27 -13 8 -12 10
10 13 5 0 13 5 18 10 5 5 3 6 -4 2 -7 -4 -13 -2 -13 3 0 6 10 11 23 12 12 0
16 3 9 6 -10 4 -9 8 5 18 9 7 18 23 18 36 1 13 7 34 13 45 6 12 8 24 5 28 -3
3 -2 6 4 6 6 0 13 10 16 21 l6 21 -23 -21 c-22 -21 -24 -21 -30 -4 -7 16 -10
15 -32 -12 -20 -25 -26 -28 -34 -15 -6 10 -10 11 -10 3 0 -7 0 -16 0 -20 0 -3
11 -7 25 -8 14 0 25 4 25 10 0 5 4 4 9 -4 7 -11 11 -10 20 5 13 24 14 9 1 -17
-9 -16 -15 -17 -31 -8 -25 13 -89 -13 -89 -36 0 -9 -6 -12 -17 -9 -17 5 -17 5
0 -6 20 -13 38 -5 31 13 -3 8 4 13 15 13 18 0 19 -2 5 -17 -8 -9 -12 -19 -7
-21 4 -3 2 -3 -4 -2 -7 2 -13 -1 -13 -6 0 -6 5 -10 10 -10 6 0 5 -6 -2 -14
-14 -15 -33 -15 -45 -1 -4 4 -3 5 4 1 14 -8 27 10 18 25 -5 7 -13 5 -25 -6
-15 -13 -19 -13 -29 -1 -9 11 -8 15 4 20 11 4 14 12 10 27 -5 13 -2 25 6 31
10 7 8 8 -8 5 -15 -3 -20 -1 -16 9 3 8 9 12 13 9 5 -3 6 4 3 16 -5 16 -8 18
-15 7 -7 -9 -8 -2 -4 20 4 26 2 32 -11 32 -16 0 -16 1 -2 16 16 15 14 69 -1
59 -5 -3 -11 -1 -15 5 -3 5 0 10 7 10 8 0 14 9 14 20 0 11 -4 20 -9 20 -4 0
-6 4 -3 8 2 4 1 14 -3 21 -7 10 -13 8 -29 -9z"/>
<path d="M3715 3970 c-22 -4 -103 -11 -180 -14 -236 -11 -291 -19 -279 -37 9
-15 449 0 507 17 10 3 32 7 49 9 36 5 42 10 33 24 -7 12 -70 13 -130 1z"/>
<path d="M2379 3637 c-22 -17 -32 -57 -11 -50 11 5 13 3 7 -7 -5 -8 -4 -11 3
-7 5 4 8 17 6 30 -3 17 -1 16 8 -5 7 -16 16 -28 21 -28 4 0 5 -5 2 -10 -4 -6
-1 -17 5 -25 10 -12 10 -15 0 -15 -10 0 -10 -3 0 -15 12 -14 10 -15 -12 -11
-18 3 -25 0 -25 -12 0 -10 5 -20 11 -24 8 -6 7 -8 -1 -8 -16 0 -23 12 -25 45
-2 23 -4 24 -15 9 -9 -12 -9 -22 -2 -35 5 -11 7 -20 4 -20 -3 -1 -11 -2 -17
-3 -7 -1 -12 -8 -10 -16 2 -8 4 -22 5 -32 1 -9 5 -14 10 -11 4 3 6 12 3 20 -3
8 -1 11 4 8 13 -8 13 -45 -1 -45 -5 0 -7 -5 -4 -10 4 -6 11 -8 16 -5 8 5 13
-7 11 -26 -1 -4 12 -5 28 -3 16 2 32 -1 35 -6 3 -6 -1 -7 -9 -4 -10 4 -16 1
-16 -8 0 -23 11 -28 34 -17 19 9 19 9 4 -4 -10 -8 -18 -19 -18 -26 0 -6 -6
-20 -12 -31 -10 -15 -10 -22 -1 -28 6 -4 13 -16 15 -27 2 -16 -2 -19 -19 -18
-13 2 -23 -2 -23 -8 0 -5 5 -7 10 -4 6 3 10 2 10 -4 0 -5 -9 -13 -20 -16 -11
-3 -20 -13 -20 -21 0 -8 -6 -14 -14 -14 -8 0 -18 -5 -22 -12 -4 -6 -3 -8 3 -5
6 4 13 0 17 -8 3 -8 0 -15 -6 -15 -6 0 -8 -3 -5 -6 4 -4 13 -2 20 4 8 7 17 9
20 5 4 -3 7 1 7 11 0 13 5 16 19 11 11 -3 23 0 27 6 5 8 3 9 -6 4 -12 -7 -30
10 -30 30 0 6 5 3 10 -5 8 -13 10 -13 10 1 0 9 9 24 20 34 11 10 16 21 11 24
-14 9 -25 61 -12 61 6 0 8 6 5 13 -3 8 3 20 12 28 16 13 16 12 6 -7 -6 -12 -8
-24 -4 -28 3 -4 0 -12 -8 -17 -12 -8 -9 -10 12 -6 23 3 28 -1 43 -39 9 -24 13
-49 9 -55 -5 -8 -3 -9 5 -5 15 10 53 -23 44 -37 -3 -5 -1 -7 4 -4 6 4 13 0 17
-8 3 -8 12 -15 20 -15 22 0 42 -40 26 -50 -7 -4 -9 -13 -6 -19 4 -6 3 -11 -2
-11 -5 0 -12 9 -15 20 -3 11 -11 20 -19 20 -11 0 -10 -2 1 -9 7 -5 11 -13 9
-17 -3 -5 3 -17 14 -26 12 -12 18 -14 18 -5 0 8 4 7 10 -3 14 -21 12 -33 -2
-24 -10 6 -10 5 -1 -8 7 -8 9 -19 5 -23 -4 -5 -1 -5 6 -1 7 4 9 13 6 19 -5 8
-3 8 7 0 18 -18 40 -16 33 2 -4 8 -1 15 5 15 6 0 8 6 5 14 -6 17 24 36 45 28
29 -10 59 -44 53 -61 -5 -13 -3 -14 10 -3 13 10 17 10 20 0 3 -7 -7 -18 -21
-25 -19 -8 -21 -12 -8 -12 18 -1 21 -9 11 -35 -3 -9 -10 -14 -14 -11 -5 3 -12
0 -16 -7 -4 -7 -4 -10 1 -6 13 12 34 -18 28 -41 -3 -14 -1 -21 8 -21 10 0 9
-5 -3 -17 -16 -15 -16 -17 0 -29 9 -7 13 -16 9 -20 -4 -5 -12 -2 -17 6 -8 12
-10 12 -10 -4 0 -14 5 -17 23 -11 12 3 33 8 45 10 29 4 42 15 18 15 -9 0 -15
4 -11 9 3 5 1 12 -4 16 -5 3 -14 -3 -20 -12 -9 -15 -12 -16 -20 -4 -7 11 -5
19 7 27 9 7 20 10 24 8 4 -2 9 0 13 6 3 5 1 10 -5 10 -6 0 -9 4 -5 10 3 5 12
7 20 4 8 -4 12 -10 9 -15 -3 -5 2 -6 10 -3 8 3 14 14 13 24 -1 15 -4 16 -15 8
-9 -8 -16 -8 -24 0 -9 9 -8 12 5 12 9 0 17 8 18 18 0 9 3 12 5 5 3 -7 12 -9
20 -6 11 4 12 9 3 19 -28 33 3 30 84 -10 48 -24 87 -41 87 -38 0 3 9 -3 19
-12 11 -10 39 -19 63 -22 l43 -4 -35 11 c-44 14 -103 42 -111 52 -3 4 -16 9
-27 10 -12 1 -22 4 -22 8 0 4 -12 12 -27 18 -16 5 -39 17 -53 25 -14 8 -63 37
-110 63 -47 26 -94 53 -105 60 -11 6 -34 19 -50 27 -17 9 -58 39 -92 66 -56
45 -64 57 -82 114 -11 35 -23 80 -26 100 -4 21 -13 36 -21 36 -8 0 -14 4 -14
10 0 5 7 7 16 3 14 -5 16 -2 11 18 -3 13 -9 44 -13 69 -10 69 -34 150 -45 150
-6 0 -7 5 -4 10 7 12 -3 50 -13 50 -4 0 -14 -6 -23 -13z"/>
<path d="M2380 2772 c0 -7 -13 -9 -36 -7 -22 3 -33 1 -29 -5 3 -5 -2 -10 -11
-10 -14 0 -15 -3 -6 -12 16 -16 15 -31 -2 -25 -8 3 -17 -1 -20 -9 -3 -8 -1
-14 5 -14 6 0 8 -4 4 -10 -3 -5 -13 -6 -23 -3 -13 4 -13 2 3 -10 16 -13 17
-16 4 -17 -10 0 -15 -8 -14 -22 2 -24 -21 -55 -32 -44 -3 3 -13 0 -21 -7 -13
-10 -15 -9 -9 5 4 12 2 15 -8 12 -7 -3 -12 -16 -11 -29 2 -14 -1 -22 -8 -19
-7 3 -12 -3 -13 -13 -2 -29 -9 -52 -17 -60 -4 -4 -7 -3 -6 2 6 30 0 38 -19 21
-11 -10 -25 -14 -37 -9 -17 6 -17 5 -5 -10 7 -9 16 -15 20 -13 3 2 13 -3 21
-12 13 -14 12 -15 -2 -9 -11 4 -18 0 -21 -11 -3 -12 -5 -11 -6 6 -1 13 -7 22
-17 22 -11 0 -14 -6 -9 -20 4 -13 2 -20 -6 -20 -7 0 -2 -9 10 -19 15 -13 18
-21 10 -26 -8 -6 -8 -10 2 -15 10 -7 10 -11 0 -24 -11 -13 -8 -15 21 -13 35 2
63 29 53 50 -4 6 0 4 8 -5 8 -10 19 -18 26 -18 7 0 10 -10 7 -25 -3 -17 -1
-23 6 -19 8 5 9 -1 5 -17 -4 -13 -7 -28 -7 -32 0 -5 -4 -6 -9 -2 -6 3 -9 -3
-8 -14 0 -11 5 -17 9 -15 4 3 9 -7 9 -23 1 -17 3 -21 6 -10 6 22 11 22 32 -4
14 -18 21 -20 38 -11 22 12 38 52 21 52 -6 0 -5 6 2 15 7 8 10 22 6 30 -4 10
1 15 15 15 11 0 18 4 15 9 -6 10 24 25 32 16 3 -3 0 -5 -6 -5 -7 0 -12 -5 -12
-10 0 -6 8 -5 20 2 14 9 16 15 7 21 -9 7 -9 10 1 14 6 2 12 9 12 14 0 6 -6 7
-12 4 -7 -4 -5 0 6 9 10 8 15 19 11 25 -3 6 2 11 12 11 15 0 16 2 3 10 -12 8
-12 10 4 16 11 4 16 14 13 25 -4 15 -2 17 13 9 20 -11 38 4 20 15 -8 5 -8 11
0 20 8 10 8 15 0 20 -7 4 -3 14 13 28 29 27 36 82 9 75 -12 -4 -22 3 -30 20
-6 14 -9 22 -6 19 4 -3 15 3 27 13 14 14 17 23 10 32 -6 7 -9 21 -8 31 2 9 -1
14 -6 11 -6 -3 -18 0 -27 7 -12 10 -11 7 3 -10 l20 -24 -28 18 c-22 14 -30 15
-42 5 -18 -15 -20 1 -3 18 6 6 9 15 5 19 -4 3 -7 1 -7 -5z"/>
<path d="M5524 2751 c5 -7 1 -20 -9 -31 -13 -14 -14 -23 -6 -39 8 -14 8 -22
-1 -27 -6 -4 -8 -3 -4 4 3 6 2 13 -4 17 -5 3 -10 -2 -10 -11 0 -10 -8 -26 -17
-37 -17 -20 -17 -20 2 -14 18 7 19 6 3 -6 -10 -8 -15 -17 -11 -20 3 -4 -2 -16
-12 -27 -10 -11 -15 -28 -12 -40 3 -11 1 -20 -5 -20 -5 0 -6 -5 -3 -10 4 -6 2
-16 -3 -23 -8 -9 -1 -12 26 -12 21 0 37 -5 40 -14 3 -8 0 -11 -7 -7 -7 5 -9 1
-5 -9 6 -14 8 -14 19 2 16 23 15 21 25 71 7 39 -2 58 -13 30 -4 -10 -6 -10 -6
-1 -1 7 5 18 12 25 13 12 11 62 -2 54 -4 -3 -8 4 -8 16 -1 13 3 18 12 14 12
-4 12 1 0 35 -11 30 -11 39 -2 39 16 0 20 37 5 46 -7 5 -8 2 -4 -5z"/>
<path d="M3346 2658 c-3 -10 -8 -25 -11 -33 -2 -8 -16 -15 -30 -15 -39 0 -105
-33 -184 -92 -39 -29 -110 -73 -158 -98 -48 -25 -90 -48 -91 -53 -2 -4 -8 -5
-13 -1 -13 8 -11 52 4 57 9 4 9 6 0 6 -9 1 -8 11 3 38 10 22 14 51 11 70 -3
19 -2 31 3 28 14 -9 19 23 7 49 -13 28 -30 36 -20 9 4 -11 3 -14 -5 -9 -7 4
-24 -3 -40 -15 -15 -12 -20 -20 -11 -16 13 4 16 1 12 -14 -3 -10 -10 -16 -17
-12 -6 3 -3 -3 7 -14 9 -11 17 -26 16 -34 0 -8 -4 -6 -9 6 -7 16 -9 17 -9 3
-1 -9 7 -22 17 -27 9 -6 13 -11 7 -11 -5 0 -3 -5 5 -10 13 -8 13 -10 -2 -10
-9 0 -19 6 -22 13 -2 6 -4 3 -2 -8 1 -11 7 -30 14 -42 15 -27 15 -33 1 -33 -5
0 -8 4 -5 8 9 15 -9 31 -24 22 -13 -8 -12 -10 2 -10 12 0 15 -6 12 -22 -3 -13
-6 -29 -6 -36 -1 -7 -16 -24 -35 -39 -32 -26 -42 -43 -25 -43 5 0 18 9 30 20
12 11 23 20 26 20 2 0 35 19 72 42 38 23 96 57 128 75 l59 34 21 -27 c46 -59
114 -113 202 -163 23 -13 41 -29 40 -36 -3 -20 -27 -45 -37 -39 -5 3 -8 0 -7
-8 2 -7 -3 -12 -10 -10 -8 1 -11 -2 -8 -6 3 -5 -20 -31 -51 -58 -31 -27 -69
-60 -84 -74 -15 -14 -53 -47 -83 -75 -31 -27 -56 -54 -56 -59 0 -9 24 12 180
154 52 47 116 105 141 128 25 23 51 42 58 42 25 0 8 16 -42 40 -29 13 -55 25
-59 25 -11 0 -75 52 -126 102 -35 34 -42 46 -37 65 10 31 69 82 131 113 58 29
84 32 84 10 0 -8 5 -15 10 -15 6 0 10 9 10 21 0 11 5 29 11 40 6 11 8 25 6 32
-3 7 -7 5 -11 -5z"/>
<path d="M3950 2599 c0 -5 8 -9 18 -9 10 0 28 -7 40 -16 12 -8 22 -12 22 -9 0
3 17 -10 38 -29 20 -19 48 -43 61 -54 23 -18 23 -20 9 -41 -12 -16 -17 -19
-22 -9 -3 7 -4 4 -1 -8 3 -12 -3 -29 -15 -42 -26 -27 -34 -28 -20 -3 15 29 12
33 -8 14 -13 -13 -16 -23 -10 -35 11 -23 -23 -43 -42 -25 -10 10 -12 8 -7 -5
4 -10 2 -18 -4 -18 -6 0 -7 -4 -4 -10 3 -5 -6 -12 -20 -16 -13 -3 -23 -10 -20
-14 5 -8 -39 -5 -54 5 -7 4 -8 0 -5 -10 5 -13 2 -15 -20 -9 -16 4 -26 2 -26
-5 0 -6 8 -8 18 -4 13 5 15 3 5 -7 -9 -10 -17 -8 -40 10 -15 12 -28 27 -28 33
0 5 -6 11 -13 13 -7 1 -8 0 -3 -2 6 -3 8 -11 5 -19 -3 -7 3 -16 15 -20 12 -3
21 -11 21 -16 0 -13 -14 -11 -28 3 -11 11 -17 2 -14 -23 2 -11 -82 -20 -161
-19 -91 2 -111 1 -106 -4 12 -12 124 -15 199 -7 47 6 100 12 118 14 29 4 40
-3 90 -53 31 -31 80 -83 109 -116 64 -73 306 -382 352 -449 19 -28 37 -52 41
-55 15 -14 61 -90 75 -124 13 -30 19 -36 26 -25 7 11 9 10 9 -6 0 -12 3 -15 9
-10 15 16 17 39 4 40 -28 1 -16 18 15 21 36 4 45 -17 15 -35 -10 -6 -14 -11
-8 -11 5 0 -1 -7 -13 -16 -12 -8 -26 -13 -31 -10 -5 3 -11 -1 -15 -9 -3 -8 -2
-16 2 -19 5 -3 6 -30 4 -60 -3 -58 12 -78 24 -31 3 14 13 25 21 25 13 0 13 -3
-1 -25 -16 -24 -16 -25 4 -25 11 0 20 5 20 11 0 5 5 7 12 3 7 -5 8 -3 2 7 -12
19 -14 39 -4 39 5 0 10 -6 12 -12 3 -9 12 -8 32 6 15 9 25 20 21 24 -3 4 -9 2
-13 -4 -6 -9 -82 -15 -82 -7 0 1 9 7 21 13 15 9 24 8 35 -1 11 -9 14 -8 14 6
0 13 -6 16 -25 13 -19 -4 -25 -1 -25 12 0 10 7 21 16 24 8 3 12 10 9 16 -3 5
-1 18 4 27 9 15 10 16 11 2 0 -9 7 -16 15 -16 17 0 20 13 5 22 -5 3 -10 15
-10 27 0 16 5 19 25 15 25 -4 25 -4 9 14 -10 11 -14 22 -9 27 4 4 10 1 12 -5
7 -19 20 -16 26 7 3 12 1 18 -5 14 -6 -4 -6 1 1 13 6 11 7 23 4 27 -5 5 12 9
20 4 9 -6 45 25 41 36 -9 23 14 28 34 8 10 -10 24 -16 30 -14 7 2 12 -1 12 -7
0 -6 -6 -11 -14 -11 -8 0 -18 -4 -21 -10 -3 -5 0 -7 8 -4 11 4 14 -2 12 -20
-2 -15 3 -30 12 -35 11 -6 12 -10 4 -15 -6 -4 -11 -2 -11 4 0 6 -4 8 -10 5 -5
-3 -10 -1 -10 6 0 7 -3 9 -7 6 -3 -4 -15 1 -26 10 -19 18 -19 17 -6 -4 8 -13
19 -23 26 -23 7 0 13 -7 13 -15 0 -8 4 -15 8 -15 14 0 43 36 35 44 -8 8 15 26
35 26 6 0 12 -9 12 -19 0 -11 4 -22 9 -25 5 -3 9 4 8 17 0 12 3 31 7 42 5 11
4 15 -1 10 -4 -6 -15 -10 -23 -10 -8 1 -24 -5 -36 -12 -24 -15 -39 -6 -23 14
6 7 9 13 6 13 -3 0 -1 16 3 36 8 35 8 35 -11 18 -10 -9 -22 -14 -26 -10 -4 4
-2 11 6 15 10 7 9 9 -3 14 -8 3 -18 2 -21 -3 -3 -5 -12 -7 -20 -4 -8 4 -12 11
-9 16 4 6 10 5 15 -3 5 -9 9 -9 9 -3 0 7 9 14 20 17 20 5 27 31 11 41 -5 4 -7
-3 -4 -14 3 -11 0 -20 -6 -20 -6 0 -11 7 -11 16 0 20 56 85 65 76 4 -4 5 -1 3
7 -4 20 -30 51 -43 51 -5 0 -4 -4 4 -9 8 -5 11 -16 8 -26 -4 -9 -11 -14 -16
-11 -5 4 -12 0 -15 -6 -3 -7 -3 -2 0 11 4 17 3 21 -6 16 -9 -5 -10 -2 -6 13 4
11 3 23 -2 26 -5 3 -8 -10 -7 -28 0 -27 -3 -32 -17 -28 -10 2 -16 8 -13 12 3
5 1 11 -4 14 -5 4 -8 -2 -6 -11 2 -10 4 -24 4 -31 1 -7 5 -10 11 -7 5 3 18 1
27 -5 17 -11 17 -11 1 -6 -12 3 -18 0 -18 -10 0 -8 5 -12 11 -8 7 4 7 -2 -1
-16 -11 -21 -13 -21 -22 -6 -5 9 -13 14 -18 11 -5 -3 -11 -1 -14 4 -4 5 -2 12
4 16 14 9 12 41 -3 54 -10 8 -14 7 -14 -2 0 -6 -4 -21 -8 -32 -5 -16 -5 -17 4
-5 9 13 11 13 11 0 0 -23 -13 -37 -32 -34 -20 3 -22 -4 -8 -26 10 -16 50 -23
50 -8 0 5 -7 8 -16 6 -10 -2 -19 2 -21 9 -3 10 15 11 37 3 3 -1 8 -2 12 -1 7
1 5 -26 -4 -34 -3 -4 -14 -8 -25 -9 -10 -2 -17 -11 -17 -20 2 -14 -1 -15 -14
-4 -10 8 -13 9 -9 1 4 -6 -4 -20 -19 -31 -20 -14 -24 -21 -14 -27 9 -6 11 -4
5 5 -6 9 -4 11 5 5 10 -6 9 -11 -6 -22 -10 -7 -24 -11 -31 -9 -14 6 -59 -52
-48 -62 4 -4 10 -1 12 6 3 6 8 10 13 7 4 -3 7 3 6 13 0 9 5 16 13 14 7 -1 19
2 26 8 9 8 11 4 7 -16 -3 -19 -7 -22 -13 -12 -6 9 -9 10 -9 1 0 -14 -59 -48
-68 -39 -3 3 -11 1 -19 -6 -11 -8 -12 -7 -7 6 3 9 10 16 15 16 5 0 9 5 9 11 0
5 -4 7 -10 4 -5 -3 -10 1 -10 9 0 8 -5 18 -10 21 -6 4 -9 3 -8 -2 2 -4 -1 -9
-7 -10 -19 -5 -9 42 14 65 22 22 25 22 40 7 15 -15 15 -16 0 -10 -10 4 -19 3
-22 -2 -3 -4 6 -9 19 -9 17 -1 24 3 24 17 0 10 -6 18 -12 16 -8 -1 -12 7 -11
20 2 17 -1 21 -15 16 -14 -6 -15 -4 -5 9 7 8 10 17 8 20 -3 3 -1 17 6 30 8 18
17 24 30 21 20 -5 20 -6 0 -19 -14 -10 -18 -23 -16 -44 4 -32 28 -64 39 -53
10 10 7 25 -3 18 -5 -3 -13 0 -16 6 -11 17 3 23 21 8 14 -11 18 -10 31 6 7 11
16 19 19 17 2 -2 10 -2 16 0 9 3 9 6 0 12 -7 4 -12 2 -12 -4 0 -8 -6 -7 -22 1
-18 10 -20 9 -15 -6 5 -12 2 -16 -10 -13 -9 2 -18 9 -21 17 -3 9 0 11 9 5 12
-6 12 -5 1 8 -9 12 -10 18 -2 23 6 4 9 14 5 23 -6 18 25 50 43 44 7 -2 10 -7
7 -12 -3 -4 2 -11 10 -14 12 -4 13 -2 6 13 -6 10 -17 24 -26 31 -13 10 -13 15
-3 21 17 11 19 49 2 49 -17 0 -18 -12 -2 -28 9 -9 8 -12 -5 -12 -11 0 -16 -7
-14 -22 1 -14 -4 -23 -13 -23 -8 0 -19 -9 -25 -21 -5 -11 -15 -19 -21 -17 -7
2 -17 -16 -25 -41 -7 -25 -18 -42 -23 -39 -6 3 -5 0 2 -8 6 -7 12 -20 12 -28
0 -10 -6 -7 -17 9 -10 14 -17 28 -15 33 1 4 -5 7 -13 7 -8 0 -14 -5 -12 -11 1
-6 -4 -14 -12 -17 -8 -3 -11 0 -7 7 4 6 2 11 -4 11 -8 0 -9 -7 -5 -17 4 -10
10 -31 13 -46 3 -17 9 -26 17 -24 8 4 10 -3 7 -19 l-4 -25 -14 27 c-8 14 -14
32 -14 40 0 7 -4 16 -10 19 -6 3 -7 -1 -4 -12 5 -17 5 -17 -6 0 -6 9 -8 21 -5
27 9 14 -26 62 -41 56 -7 -3 -18 3 -26 12 -12 16 -11 16 6 2 17 -14 18 -13 12
6 -8 25 2 56 15 48 15 -9 10 9 -11 41 l-20 30 5 -37 c5 -32 3 -38 -12 -37 -10
0 -13 3 -6 6 10 3 9 8 -2 20 -8 8 -12 19 -9 25 4 7 2 8 -4 4 -7 -4 -12 -2 -12
3 0 6 -5 11 -12 11 -6 0 -4 -7 5 -18 20 -22 12 -35 -14 -21 -11 6 -16 16 -13
27 5 14 4 15 -5 2 -9 -13 -15 -8 -12 12 0 4 -11 16 -26 27 -14 12 -22 21 -18
21 5 0 -4 10 -18 23 -15 12 -27 28 -27 35 0 7 -6 12 -14 12 -7 0 -16 9 -19 20
-4 17 -1 19 19 14 19 -5 24 -2 24 12 0 15 3 15 25 -6 14 -13 25 -21 25 -17 0
3 -10 15 -22 27 -20 18 -23 18 -39 4 -16 -14 -18 -14 -26 1 -5 9 -19 17 -30
18 -15 1 -20 7 -17 20 2 13 -1 17 -11 14 -15 -7 -39 16 -28 27 4 4 0 4 -10 0
-9 -3 -17 -2 -17 3 0 5 -9 19 -21 32 -13 14 -19 30 -16 43 3 11 3 17 0 14 -3
-3 -18 1 -34 10 -32 16 -39 27 -11 17 15 -6 15 -5 4 10 -8 8 -20 13 -28 10 -9
-3 -14 1 -14 12 0 10 4 13 13 9 8 -5 8 -2 -2 9 -12 15 -11 17 3 17 9 0 16 -4
16 -10 0 -5 4 -10 10 -10 5 0 7 6 4 14 -7 19 16 32 27 15 7 -11 9 -9 9 6 0 26
55 62 64 43 4 -9 5 -8 5 2 -2 33 2 41 27 50 14 6 23 14 19 19 -3 5 3 26 12 45
13 25 25 36 41 36 12 0 22 -4 22 -8 0 -5 38 -28 85 -53 47 -24 85 -48 85 -52
0 -5 7 -4 15 3 8 7 15 18 15 24 0 6 -5 4 -10 -4 -9 -14 -14 -7 -11 13 1 4 -4
7 -11 5 -17 -3 -123 48 -168 81 -19 14 -60 46 -90 72 -30 25 -66 52 -79 59
-37 19 -81 30 -81 19z"/>
<path d="M4390 2321 c0 -4 20 -19 45 -32 25 -13 45 -27 45 -30 0 -4 39 -35 88
-69 48 -35 97 -74 108 -87 12 -12 24 -23 28 -23 20 0 191 -173 206 -209 7 -17
17 -31 22 -31 6 0 3 11 -6 25 -9 13 -16 30 -16 37 0 20 -104 123 -231 229 -30
26 -55 55 -55 65 -1 11 -4 31 -7 46 -4 19 -1 30 9 36 11 6 10 11 -7 26 -20 17
-21 17 -15 -1 3 -10 1 -25 -4 -32 -5 -9 -5 -22 0 -31 15 -29 -28 -21 -85 15
-30 19 -57 39 -60 45 -4 6 -10 8 -15 5 -4 -3 -13 2 -20 10 -14 16 -30 20 -30
6z"/>
<path d="M2209 2165 c-1 -5 -1 -13 0 -17 0 -5 -5 -8 -11 -8 -9 0 -10 -2 -2 -8
17 -11 5 -75 -13 -68 -8 3 -11 1 -8 -4 3 -5 1 -18 -4 -27 -6 -11 -11 -13 -11
-5 0 10 -3 10 -14 0 -8 -7 -12 -16 -9 -20 2 -4 -3 -5 -11 -2 -10 4 -16 1 -16
-9 0 -8 -7 -18 -16 -21 -8 -3 -12 -10 -9 -16 3 -5 0 -7 -9 -4 -8 3 -12 12 -9
21 4 11 2 14 -8 11 -8 -3 -13 -16 -12 -29 1 -13 0 -18 -3 -11 -3 6 -10 12 -15
12 -6 0 -5 -8 1 -20 16 -29 7 -69 -21 -98 -13 -14 -18 -22 -11 -18 6 4 12 3
12 -3 0 -5 -6 -12 -12 -14 -9 -4 -8 -6 3 -6 8 -1 21 5 28 12 10 10 11 8 5 -7
-6 -15 -4 -17 6 -11 8 5 11 4 6 -3 -4 -6 -13 -9 -20 -6 -8 3 -17 1 -21 -5 -3
-6 -19 -11 -36 -11 -26 0 -28 -2 -17 -19 9 -15 16 -17 29 -10 12 6 20 5 25 -3
4 -6 3 -8 -3 -5 -6 4 -21 -2 -33 -13 -13 -11 -19 -20 -14 -20 6 0 10 -9 11
-19 1 -14 -3 -18 -13 -14 -8 3 -14 -1 -14 -10 0 -10 8 -14 25 -12 14 1 28 -2
31 -6 3 -5 13 -5 23 1 10 5 22 6 26 2 4 -4 3 2 -3 14 -8 15 -8 24 0 32 19 19
32 14 17 -5 -13 -16 -12 -17 3 -5 9 8 14 20 11 28 -3 8 2 25 10 37 11 17 12
28 5 41 -7 13 -7 17 0 12 12 -7 34 17 31 36 -3 25 1 39 10 34 8 -6 23 16 26
39 0 6 6 9 13 8 6 -2 9 4 6 12 -4 10 0 15 12 15 14 0 15 3 6 12 -10 10 -8 16
10 30 16 12 17 16 6 12 -10 -3 -18 -1 -18 5 0 6 7 11 15 11 18 0 19 12 3 29
-11 10 -10 12 2 9 8 -2 15 4 15 12 1 22 28 80 38 80 5 0 5 5 2 10 -10 16 -35
12 -29 -5 4 -8 3 -15 0 -15 -4 0 -11 10 -16 23 -5 12 -10 18 -11 12z"/>
<path d="M4516 1838 c2 -4 0 -9 -6 -13 -5 -3 -10 -1 -10 5 0 6 -5 8 -11 4 -8
-5 -6 -10 5 -16 9 -5 16 -14 16 -20 0 -7 -4 -7 -13 1 -11 9 -13 5 -12 -19 1
-16 -1 -27 -5 -25 -4 2 -17 -7 -28 -20 -12 -14 -30 -25 -40 -25 -10 0 -19 -7
-19 -15 0 -18 17 -20 18 -2 0 6 5 -4 11 -23 9 -30 11 -32 18 -15 4 11 3 23 -3
26 -13 9 1 29 17 23 8 -3 11 -16 8 -35 -4 -28 -3 -30 24 -24 50 11 56 15 52
32 -3 19 21 55 32 48 3 -2 12 5 19 17 10 16 10 18 0 12 -9 -5 -10 -2 -6 10 6
14 3 16 -13 11 -15 -5 -20 -2 -20 12 -1 16 -2 15 -13 -3 -9 -15 -17 -19 -31
-14 -18 6 -18 7 -2 13 11 4 16 13 12 22 -10 26 25 31 43 6 17 -22 31 -19 31 7
0 8 -6 12 -15 9 -8 -4 -17 -2 -20 3 -3 4 1 11 7 13 7 3 -1 4 -19 4 -17 -1 -29
-5 -27 -9z"/>
<path d="M2319 1612 c6 -12 25 -42 41 -65 52 -78 141 -251 135 -265 -3 -9 0
-12 9 -9 8 3 17 -1 20 -9 8 -22 8 -22 -11 -19 -10 1 -12 0 -5 -2 6 -3 12 -9
12 -14 0 -6 4 -8 9 -4 5 3 13 0 16 -5 11 -18 13 -60 3 -60 -5 0 -7 -4 -3 -9 3
-5 1 -12 -5 -16 -5 -3 -10 -12 -10 -18 0 -8 3 -8 9 2 5 8 11 9 15 3 10 -17 14
-72 5 -72 -5 0 -9 5 -9 12 0 6 -3 8 -6 5 -4 -4 -2 -13 5 -21 9 -11 9 -15 -1
-19 -8 -3 -6 -6 5 -6 15 -1 16 -5 7 -21 -7 -13 -7 -20 -1 -20 6 0 8 -7 5 -15
-4 -8 -11 -12 -17 -8 -6 3 -7 1 -3 -6 4 -6 11 -9 16 -6 15 9 3 -51 -15 -79
-10 -14 -24 -26 -32 -26 -8 0 -12 -4 -8 -10 8 -14 31 -2 44 23 11 21 11 20 6
-5 -3 -17 -1 -28 5 -28 6 0 8 -5 4 -11 -4 -8 -9 -7 -14 2 -7 10 -11 10 -24 0
-8 -7 -21 -9 -27 -5 -8 5 -9 3 -4 -6 6 -9 4 -12 -7 -8 -8 4 -20 3 -27 -1 -9
-6 -8 -12 4 -25 10 -9 14 -20 10 -24 -4 -4 -10 -1 -12 6 -3 7 -11 19 -19 26
-16 17 -19 30 -4 21 6 -3 10 -2 10 3 0 15 -25 21 -41 11 -8 -5 -9 -9 -3 -9 7
0 14 -10 18 -22 4 -19 0 -17 -27 12 -19 19 -31 39 -29 44 3 5 0 6 -6 2 -6 -4
-21 7 -33 24 -13 16 -27 30 -31 30 -10 0 37 -63 105 -139 32 -36 44 -56 37
-61 -9 -5 -9 -9 -1 -14 6 -4 16 -4 21 -1 6 4 10 -5 10 -20 0 -22 4 -26 18 -21
10 4 7 -2 -8 -14 -14 -11 -18 -19 -10 -18 8 2 14 -2 13 -8 -1 -7 5 -11 15 -10
9 0 18 -7 20 -17 3 -16 1 -17 -19 -5 -13 7 -29 19 -37 25 -17 16 -30 17 -14 1
15 -15 16 -32 2 -23 -5 3 -10 1 -10 -5 0 -7 8 -9 19 -5 21 6 38 -25 25 -46 -4
-8 -3 -9 4 -5 11 7 35 -26 27 -38 -3 -3 8 5 23 19 17 17 23 28 16 33 -16 10
-13 42 3 42 8 0 13 -6 12 -12 -3 -27 1 -58 9 -58 4 0 6 17 5 37 -1 21 -2 212
-2 424 l-1 387 -25 4 c-20 4 -23 3 -14 -8 6 -8 15 -11 20 -8 5 3 9 -2 9 -10 0
-8 -5 -18 -10 -21 -8 -5 -7 -11 1 -21 8 -10 8 -14 0 -14 -6 0 -12 5 -12 10 -1
6 -3 15 -4 20 -1 6 -3 15 -4 21 0 5 -5 7 -11 4 -6 -4 -7 1 -3 11 5 13 3 16
-10 11 -11 -4 -17 -1 -17 7 0 7 -8 20 -18 29 -10 9 -40 59 -67 111 -27 52 -52
93 -56 90 -4 -2 -10 4 -14 15 -3 11 -13 25 -22 33 -15 12 -15 11 -4 -10z"/>
<path d="M4859 1398 c-1 -7 -1 -16 0 -20 0 -5 -3 -8 -9 -8 -5 0 -10 -7 -10
-16 0 -8 -4 -12 -10 -9 -5 3 -10 1 -10 -4 0 -6 -7 -11 -15 -11 -8 0 -15 -8
-15 -17 0 -13 3 -14 12 -5 7 7 17 12 23 12 5 0 3 -5 -5 -10 -13 -9 -13 -11 0
-21 11 -8 12 -12 3 -16 -7 -2 -13 -11 -13 -18 0 -7 -6 -15 -12 -18 -10 -3 -9
-9 4 -22 16 -17 17 -17 11 5 l-6 23 22 -22 c18 -18 21 -27 13 -49 -5 -15 -19
-29 -33 -33 -14 -4 -17 -7 -7 -8 9 -1 19 -7 21 -13 3 -8 6 -7 6 4 1 23 21 34
32 17 14 -23 10 -32 -8 -18 -10 7 -15 9 -11 5 4 -5 3 -15 -4 -23 -6 -7 -8 -16
-4 -20 3 -3 6 -1 6 5 0 7 4 12 9 12 6 0 9 -9 8 -20 -1 -11 -7 -20 -14 -20 -7
0 -13 -7 -13 -15 0 -12 4 -12 21 3 11 9 25 26 29 38 13 33 47 26 41 -9 -1 -5
4 -5 10 -1 9 5 10 2 6 -11 -4 -9 -3 -23 2 -29 5 -6 10 -15 10 -21 1 -5 6 -10
11 -10 6 0 15 -7 20 -15 5 -8 12 -11 16 -7 4 4 -2 14 -14 23 -22 15 -32 41
-10 28 7 -4 8 -3 4 5 -4 6 -12 9 -17 6 -5 -4 -9 0 -9 8 0 7 7 14 15 14 8 0 15
-4 15 -8 0 -11 33 -4 37 7 2 6 -10 9 -27 8 -16 -1 -30 0 -30 2 0 11 35 42 42
38 4 -3 5 2 2 10 -3 9 -1 16 5 16 17 0 13 -28 -6 -39 -10 -6 -15 -11 -10 -12
4 -1 10 -2 15 -3 4 -1 13 -5 20 -9 11 -7 14 -3 11 20 0 4 8 10 18 14 16 7 15
8 -4 8 -21 1 -29 16 -24 45 1 5 -4 4 -12 -2 -8 -7 -17 -9 -20 -5 -4 3 -7 -4
-7 -16 0 -13 -4 -19 -10 -16 -6 4 -9 1 -8 -7 2 -7 -3 -12 -9 -11 -7 2 -13 -5
-13 -14 0 -13 -3 -14 -12 -5 -9 9 -8 16 5 29 8 10 17 23 19 28 2 6 7 9 11 7 5
-1 6 2 2 8 -3 5 1 10 9 10 10 0 13 6 10 15 -5 12 -10 10 -26 -11 -18 -22 -22
-24 -37 -10 -11 10 -21 12 -31 6 -13 -8 -12 -10 3 -10 9 0 17 -4 17 -10 0 -5
7 -10 15 -10 13 0 13 -2 3 -14 -7 -8 -15 -11 -18 -7 -3 3 -17 12 -32 20 -34
17 -41 36 -22 56 10 10 11 15 3 15 -8 0 -8 4 2 16 7 9 9 18 3 22 -11 8 -14 52
-3 52 4 0 11 -4 14 -10 3 -5 12 -10 18 -9 9 0 9 2 0 6 -24 9 -13 21 22 25 29
3 35 1 30 -11 -4 -11 0 -9 13 4 15 16 17 25 9 42 -8 18 -13 20 -23 12 -8 -6
-12 -15 -9 -19 6 -9 -25 -23 -34 -15 -3 3 1 10 9 15 12 8 12 10 1 10 -7 0 -11
6 -8 13 3 7 -3 13 -14 13 -12 0 -15 -4 -9 -11 14 -16 1 -55 -16 -48 -13 5 -19
-8 -15 -30 1 -4 -3 -17 -9 -27 -8 -14 -8 -20 0 -20 6 0 8 -4 5 -10 -3 -5 -10
-10 -15 -10 -13 0 -21 32 -11 44 5 6 8 24 7 39 -2 16 3 31 11 36 14 7 29 71
18 71 -3 0 -6 -6 -6 -12z"/>
<path d="M4987 814 c9 -4 9 -12 -3 -30 -10 -15 -12 -24 -5 -24 6 0 11 7 11 16
0 8 4 13 9 10 4 -3 6 -17 3 -32 -3 -15 -8 -21 -12 -14 -5 7 -11 6 -21 -6 -9
-12 -10 -15 -1 -10 6 4 12 3 12 -3 0 -6 15 -8 35 -6 35 5 48 -8 20 -19 -8 -3
-15 -12 -15 -20 0 -7 7 -16 15 -20 8 -3 15 -1 15 4 0 6 -5 10 -11 10 -8 0 -8
5 1 15 7 8 19 15 26 15 8 0 14 8 14 18 0 14 2 15 9 2 6 -8 7 -18 5 -22 -3 -4
0 -8 6 -8 7 0 -2 -13 -19 -29 -17 -16 -31 -34 -31 -41 0 -6 -5 -8 -11 -5 -6 4
-5 -2 2 -13 10 -17 15 -18 26 -7 15 16 17 29 3 20 -5 -3 -10 -2 -10 4 0 17 18
21 24 5 3 -8 11 -12 17 -9 6 4 13 -2 16 -14 3 -14 12 -20 27 -18 12 1 20 -3
19 -10 -3 -15 13 -17 22 -3 3 6 0 10 -7 10 -9 0 -9 3 2 10 15 10 11 12 -25 14
-11 1 -19 7 -17 14 1 6 -6 12 -15 12 -15 0 -16 2 -3 10 18 12 30 13 29 3 -1
-5 -1 -15 0 -22 1 -12 4 -12 13 -3 15 15 42 16 32 0 -4 -7 -3 -8 5 -4 9 6 8
14 -4 33 -9 14 -15 33 -12 43 3 12 -4 22 -19 31 -13 7 -24 16 -24 21 0 4 -4 8
-8 8 -5 0 -8 -10 -6 -22 1 -13 3 -27 3 -31 1 -5 6 -5 11 -2 6 4 8 11 5 16 -3
5 0 6 8 3 21 -8 13 -46 -11 -55 -12 -5 -22 -6 -22 -2 0 3 -7 0 -15 -7 -17 -14
-21 0 -4 17 6 6 19 9 28 5 14 -5 14 -3 -2 12 -9 10 -22 26 -28 37 -9 17 -13
18 -26 7 -14 -11 -15 -8 -10 29 5 31 2 43 -8 47 -8 3 -15 0 -15 -7 0 -8 -3 -7
-9 2 -5 8 -20 16 -33 17 -13 2 -17 0 -11 -2z"/>
</g>
</svg>
